<?xml version="1.0" encoding="utf-8"?>
<!DOCTYPE svg PUBLIC "-//W3C//DTD SVG 20010904//EN" "http://www.w3.org/TR/2001/REC-SVG-20010904/DTD/svg10.dtd">
<svg version="1.0" width="743.775pt" height="721.92pt" viewBox="0 0 743.775 721.92" preserveAspectRatio="xMidYMid meet" xmlns="http://www.w3.org/2000/svg">
  <g transform="translate(0,721.92)scale(.0705,.0705)">
    <path id="path1" d="M 4875 -9324 c -350 28 -651 89 -964 196 -906 308 -1666 974 -2083 1823 -188 385 -298 763 -350 1205 -18 150 -15 570 5 735 118 982 606 1833 1407 2454 458 355 1064 618 1638 711 295 48 691 65 941 40 529 -52 1046 -217 1506 -480 478 -273 920 -682 1225 -1132 328 -485 515 -988 592 -1598 20 -164 17 -642 -6 -805 -132 -946 -582 -1749 -1308 -2338 -531 -431 -1163 -697 -1883 -793 -106 -15 -608 -27 -720 -18 z m 660 299 c 738 86 1446 413 1955 904 l 95 91 -75 -39 c -157 -82 -307 -114 -540 -114 -371 -1 -800 123 -1165 334 -204 119 -282 159 -307 159 -99 0 -650 142 -840 216 -108 42 -396 184 -442 218 -17 13 -57 33 -89 45 -32 12 -71 28 -85 35 -15 8 -95 28 -177 45 -232 47 -426 97 -589 151 -365 122 -975 472 -1191 683 -83 82 -99 103 -140 189 -52 111 -75 201 -75 306 0 90 15 128 70 175 48 41 182 97 232 97 33 0 118 28 118 39 0 3 -55 44 -122 91 -116 82 -310 236 -335 268 -17 20 -18 18 -32 -56 -93 -508 -53 -1062 113 -1564 165 -497 434 -933 804 -1305 551 -553 1305 -905 2083 -973 68 -5 142 -12 164 -14 81 -8 444 4 570 19 z m 1704 930 c 57 9 126 25 154 36 65 26 180 90 173 96 -3 3 -60 -13 -128 -35 -166 -55 -261 -69 -317 -46 -40 16 -48 16 -178 -6 -161 -27 -226 -23 -344 20 -44 17 -97 30 -117 30 -20 0 -52 9 -70 20 -20 12 -50 20 -77 20 -63 0 -321 104 -464 188 -64 37 -89 48 -159 71 -46 14 -40 5 16 -23 26 -13 95 -53 153 -88 192 -117 425 -207 654 -253 273 -56 478 -64 704 -30 z m -505 74 c -5 4 -27 13 -49 19 -22 6 -50 14 -63 17 -13 5 -22 3 -22 -4 0 -6 21 -17 48 -25 53 -17 101 -21 86 -7 z m 53 -3 c -3 3 -12 4 -19 1 -8 -3 -5 -6 6 -6 11 -1 17 2 13 5 z m 267 45 c 5 5 -6 4 -25 -1 -18 -6 -46 -10 -60 -10 -15 0 -32 -6 -38 -14 -10 -12 -1 -11 51 1 35 9 67 20 72 24 z m -464 -1 c 0 6 -5 10 -11 10 -5 0 -7 -4 -4 -10 3 -6 8 -10 11 -10 2 0 4 4 4 10 z m 180 2 c 22 7 40 16 40 20 0 5 14 8 30 8 40 0 38 16 -2 23 -176 31 -205 39 -254 67 -30 17 -54 26 -54 20 0 -5 4 -10 10 -10 6 0 10 -4 10 -10 0 -12 -59 -13 -77 -2 -6 4 -10 11 -10 16 1 4 -41 9 -94 10 -90 1 -94 0 -75 -16 30 -24 11 -35 -27 -16 -18 9 -41 19 -52 22 -17 5 -16 3 5 -15 l 25 -21 -35 6 c -39 7 -32 0 32 -34 38 -20 159 -30 128 -11 -8 6 -18 7 -24 4 -5 -4 -6 -1 -2 6 5 7 15 9 25 6 9 -4 54 -10 101 -15 79 -8 142 -28 156 -51 3 -5 14 -7 24 -4 10 3 21 1 25 -5 8 -14 47 -13 95 2 z m -320 17 c 0 5 -7 11 -15 15 -15 5 -20 -5 -8 -17 9 -10 23 -9 23 2 z m 680 11 c 8 5 10 10 5 10 -5 0 -17 -5 -25 -10 -8 -5 -10 -10 -5 -10 5 0 17 5 25 10 z m -10 44 c 53 27 80 33 80 17 0 -5 -10 -15 -22 -23 -21 -14 -6 -15 152 -13 168 2 179 3 270 34 112 37 234 101 238 123 2 11 -9 21 -32 29 -20 7 -36 17 -36 21 0 15 22 8 85 -23 l 62 -32 84 88 c 46 48 92 100 103 116 l 18 30 -28 -12 c -16 -7 -36 -21 -46 -31 -21 -23 -29 -23 -22 0 5 16 5 16 -8 0 -8 -9 -13 -33 -12 -52 3 -30 -1 -36 -26 -45 -17 -5 -30 -14 -30 -20 0 -18 -59 -23 -90 -8 -16 9 -43 18 -60 22 -20 4 -30 13 -30 25 0 24 -20 37 -30 19 -7 -10 -16 -10 -52 0 -24 7 -49 15 -56 17 -6 2 -12 10 -12 19 0 18 -40 21 -57 4 -13 -13 -59 -8 -56 6 1 6 3 17 6 25 2 8 2 12 0 7 -3 -4 -9 -5 -14 -2 -5 4 -6 -1 -3 -9 3 -9 1 -16 -5 -16 -21 0 -26 5 -23 22 2 12 -3 18 -17 18 -12 0 -21 4 -21 10 0 6 -9 10 -21 10 -11 0 -18 4 -14 9 11 19 -13 20 -29 2 -17 -18 -17 -20 1 -29 10 -5 28 -8 39 -6 26 4 52 -21 30 -29 -7 -3 -30 -2 -50 3 -57 13 -28 -13 43 -39 39 -14 82 -21 128 -21 68 0 173 -25 173 -41 0 -15 -18 -19 -42 -10 -12 4 -68 11 -123 15 -81 5 -111 12 -160 35 -251 120 -247 119 -321 101 -38 -9 -69 -10 -113 -3 -44 7 -71 6 -103 -4 -23 -7 -83 -13 -132 -13 -65 0 -120 -8 -205 -29 -189 -48 -318 -70 -459 -77 -72 -4 -132 -10 -132 -14 0 -16 100 -49 166 -56 39 -4 98 -19 135 -35 50 -21 84 -29 141 -30 41 -1 83 3 93 8 17 10 17 12 -6 24 -41 24 -108 74 -109 81 -1 22 41 2 80 -38 25 -25 68 -58 95 -73 58 -33 192 -81 227 -81 13 0 50 -14 83 -31 56 -28 66 -30 141 -26 62 4 94 11 134 31 z m -600 80 c 0 3 -4 8 -10 11 -6 3 -10 1 -10 -4 0 -6 4 -11 10 -11 6 0 10 2 10 4 z m -510 71 c -7 8 -20 15 -28 15 -13 0 -12 -3 4 -15 25 -19 40 -19 24 0 z m 1895 93 c -3 3 -11 0 -18 -7 -9 -10 -8 -11 6 -5 10 3 15 9 12 12 z m -35 11 c 0 4 -6 8 -14 8 -8 0 -12 -6 -9 -14 5 -13 23 -9 23 6 z m 60 11 c 0 6 -2 10 -4 10 -3 0 -8 -4 -11 -10 -3 -6 -1 -10 4 -10 6 0 11 4 11 10 z m -1676 35 c 50 8 95 20 100 24 6 5 18 7 28 6 9 -2 18 5 21 15 8 33 185 95 259 92 10 0 18 6 18 14 0 9 -5 12 -11 8 -7 -4 -10 -1 -7 6 7 21 28 24 28 3 1 -17 1 -17 11 0 6 9 15 15 20 11 6 -4 2 -15 -11 -29 -12 -13 -19 -28 -15 -34 12 -20 40 -11 56 18 9 15 31 36 49 45 40 20 44 20 37 1 -5 -11 0 -13 26 -8 18 3 38 11 45 16 10 8 16 7 22 -3 5 -8 12 -12 15 -8 4 3 22 -4 41 -17 42 -28 66 -23 82 17 6 17 16 27 22 23 6 -3 10 -3 9 2 -1 4 -1 15 0 23 1 12 3 13 10 1 7 -11 13 -11 32 3 26 17 39 20 39 8 0 -4 -13 -13 -29 -19 -21 -7 -31 -20 -36 -43 -9 -39 10 -57 36 -34 15 14 19 13 38 -7 12 -13 21 -26 21 -30 0 -9 110 -73 116 -67 2 3 -7 11 -21 18 -14 7 -25 21 -25 30 0 20 -24 43 -33 33 -4 -3 -2 -12 4 -19 8 -9 6 -11 -9 -7 -14 3 -18 11 -15 24 4 13 0 19 -11 19 -10 0 -14 5 -11 10 3 6 -1 13 -9 16 -9 3 -16 13 -16 22 0 12 3 13 12 4 8 -8 15 -9 25 -1 10 9 13 7 13 -7 0 -11 4 -26 10 -34 8 -12 11 -12 28 3 10 9 21 15 23 12 3 -2 22 -7 43 -9 31 -4 37 -3 32 10 -3 9 -6 19 -6 24 0 13 -48 18 -59 7 -8 -8 -15 -7 -23 1 -18 18 6 32 56 32 29 0 37 -3 33 -15 -8 -18 9 -29 31 -20 14 5 14 7 2 15 -11 7 -9 9 8 7 12 0 22 -5 22 -10 0 -4 4 -6 9 -3 5 3 14 -1 21 -9 9 -10 9 -15 1 -15 -6 0 -11 -4 -11 -10 0 -6 14 -10 31 -10 38 0 136 -28 145 -41 3 -5 10 -7 15 -4 5 4 9 0 9 -8 0 -9 15 -17 40 -21 42 -7 77 -43 67 -70 -4 -10 4 -15 24 -18 16 -3 29 -1 29 4 0 4 7 8 16 8 9 0 14 -6 11 -13 -4 -10 5 -13 29 -13 19 1 34 4 34 8 0 5 -4 8 -9 8 -5 0 -7 9 -4 20 3 13 14 20 29 20 13 0 24 5 24 11 0 5 5 7 10 4 6 -4 8 -16 5 -28 -6 -21 -6 -22 9 -3 9 11 16 28 16 38 0 10 6 17 12 15 16 -3 18 23 4 42 -9 11 -12 9 -16 -8 -3 -12 -9 -21 -15 -21 -6 1 -8 7 -7 13 2 7 8 41 14 76 8 50 7 65 -3 72 -8 5 -17 3 -21 -4 -4 -7 -8 -9 -8 -4 0 4 -14 -5 -31 -20 -34 -30 -50 -35 -57 -15 -2 6 2 12 10 12 15 0 43 39 34 48 -4 3 -16 -4 -29 -16 -13 -12 -34 -21 -48 -21 -22 2 -23 2 -2 6 12 2 25 13 28 24 6 17 24 24 49 20 5 -1 6 5 3 13 -4 9 -2 18 3 21 17 10 11 35 -9 43 -11 4 -20 11 -20 17 0 5 -4 11 -9 13 -15 5 -23 -41 -9 -51 7 -5 3 -6 -11 -2 -16 5 -24 1 -29 -12 -3 -10 -15 -31 -26 -46 -15 -22 -16 -31 -7 -42 9 -11 9 -15 1 -15 -6 0 -11 4 -11 10 0 6 -7 10 -15 10 -9 0 -15 -6 -14 -12 4 -34 0 -39 -23 -27 -31 16 -38 30 -28 50 5 9 6 19 3 23 -4 3 -1 6 5 6 7 0 12 7 12 15 0 13 -3 13 -20 3 -10 -7 -22 -10 -25 -7 -9 10 -13 109 -4 109 5 0 9 -5 9 -12 0 -9 3 -9 12 0 7 7 17 12 24 12 16 0 25 -38 10 -43 -8 -3 -8 -8 2 -18 9 -9 12 -10 12 -1 0 7 10 12 22 12 19 0 20 -2 8 -10 -12 -8 -12 -10 -1 -10 11 0 11 -4 -2 -18 -20 -22 -21 -32 -4 -32 8 0 19 11 25 25 6 14 8 25 3 25 -4 0 -7 10 -7 22 1 13 -4 22 -12 20 -14 -2 -14 0 -6 22 5 14 8 14 22 -1 10 -9 17 -23 17 -32 0 -8 6 -16 14 -19 11 -4 12 2 5 24 -4 16 -7 44 -7 62 2 35 -16 44 -24 12 -3 -11 -10 -20 -15 -20 -6 0 -8 7 -4 15 3 8 1 15 -4 15 -6 0 -10 7 -10 15 0 23 -50 63 -86 70 -19 3 -34 10 -34 15 0 6 -7 10 -15 10 -8 0 -15 4 -15 8 0 5 -16 16 -35 25 l -36 17 -10 -27 c -5 -15 -9 -38 -7 -52 5 -41 -20 -35 -33 8 -9 29 -18 41 -31 41 -11 0 -16 5 -13 10 4 6 11 8 16 5 5 -4 9 6 9 21 0 26 -52 94 -72 94 -17 0 -7 -20 17 -32 18 -10 22 -17 15 -28 -8 -13 -10 -12 -10 2 0 10 -4 18 -9 18 -4 0 -6 -10 -4 -23 3 -13 -4 -32 -16 -46 -15 -17 -18 -27 -10 -32 8 -4 4 -11 -10 -19 -44 -23 -135 31 -126 75 2 11 4 23 4 27 1 4 13 3 27 -2 14 -6 27 -10 30 -10 9 0 3 49 -13 96 -17 51 -34 74 -52 74 -15 0 -14 -16 5 -51 8 -17 14 -38 12 -47 -3 -11 -13 1 -31 34 -23 45 -29 51 -51 47 -29 -6 -47 20 -27 40 8 8 11 8 11 -1 0 -7 4 -12 10 -12 6 0 10 9 10 20 0 14 5 18 16 13 14 -5 15 -3 3 18 -8 17 -14 20 -17 10 -3 -9 -10 -2 -18 18 -14 33 -34 42 -34 15 0 -8 4 -12 10 -9 15 9 12 -2 -6 -19 -20 -20 -38 -21 -30 0 3 9 2 12 -5 8 -6 -3 -24 7 -41 22 l -29 29 20 -48 c 24 -55 24 -57 13 -57 -5 0 -17 18 -27 40 -10 23 -23 43 -27 47 -5 3 0 -13 11 -36 12 -23 17 -41 12 -41 -14 0 -49 39 -67 72 -8 16 -16 28 -18 28 -3 0 0 -12 5 -28 30 -95 37 -122 29 -122 -7 0 -50 99 -50 116 0 3 -12 22 -26 42 l -26 37 7 -43 c 10 -60 -9 -54 -44 16 -16 31 -37 66 -45 77 -9 11 -1 -9 18 -45 32 -60 76 -176 76 -200 0 -24 -18 -7 -24 22 -4 18 -20 60 -36 93 l -30 60 6 -60 c 3 -33 12 -81 20 -106 8 -26 19 -71 23 -100 9 -52 8 -53 -9 -31 -10 12 -27 53 -39 91 -24 79 -91 177 -148 215 -33 23 -40 24 -49 11 -9 -12 -17 -10 -52 16 -23 17 -84 52 -136 78 -53 27 -92 52 -88 56 4 5 1 5 -6 1 -8 -5 -27 3 -49 20 -20 15 -33 21 -28 13 7 -11 4 -11 -11 1 -29 24 -121 53 -147 46 -13 -3 -32 0 -43 8 -27 18 -168 66 -194 66 -18 0 -2 -20 74 -91 53 -50 96 -96 96 -102 0 -7 -22 12 -48 40 -105 117 -248 194 -331 179 -20 -4 -53 -9 -74 -11 -21 -2 -43 -7 -49 -11 -7 -5 -9 -1 -5 12 27 84 31 106 21 122 -6 9 -9 34 -6 56 3 24 1 36 -5 33 -6 -4 -13 -26 -16 -50 -7 -51 -42 -137 -56 -137 -6 0 -2 24 8 53 10 29 21 73 25 98 l 6 44 -13 -38 c -6 -21 -15 -35 -19 -31 -5 4 -8 2 -8 -5 0 -7 -5 -9 -10 -6 -6 4 -9 14 -8 23 3 16 -1 18 -43 21 -11 0 -17 6 -14 11 4 6 10 8 15 5 5 -3 18 5 29 17 15 15 21 18 21 7 1 -10 3 -9 11 4 8 13 6 29 -6 62 -10 24 -14 48 -11 54 8 12 -404 219 -639 320 -169 73 -547 226 -585 237 -15 4 -18 2 -14 -10 6 -15 89 -46 121 -46 8 0 32 -9 54 -21 40 -20 40 -21 24 -45 -17 -27 -19 -26 51 -43 23 -6 84 -31 137 -56 112 -52 122 -54 107 -23 -11 22 -10 22 4 4 9 -11 16 -23 16 -27 0 -10 62 -41 68 -34 3 3 0 5 -6 5 -7 0 -12 6 -12 14 0 8 -5 18 -12 22 -7 4 -8 3 -4 -4 5 -8 1 -10 -10 -5 -16 6 -15 8 5 17 18 8 26 5 47 -17 25 -27 32 -43 14 -32 -6 3 -10 2 -10 -4 0 -12 52 -37 208 -98 92 -36 117 -42 124 -31 7 10 8 10 6 -2 -2 -8 18 -34 43 -58 75 -68 69 -115 -8 -78 -20 9 -38 15 -40 12 -2 -2 -18 0 -34 4 -16 5 -31 5 -34 0 -6 -10 -194 76 -272 126 -85 54 -230 125 -268 131 -21 3 -41 -1 -59 -12 -20 -13 -37 -16 -73 -10 -65 9 -123 33 -155 63 -25 23 -37 27 -93 31 -15 1 -17 3 -6 10 10 6 3 12 -25 21 -22 7 -47 19 -56 28 -19 16 -21 15 -121 -22 -84 -32 -113 -34 -77 -6 17 13 20 20 10 20 -8 0 -21 -9 -28 -20 -7 -11 -19 -20 -28 -20 -15 0 -15 2 0 25 15 23 15 25 1 25 -9 0 -14 4 -11 8 3 5 -5 8 -17 8 -15 -1 -22 5 -21 16 2 25 -22 11 -45 -25 -69 -111 -101 -145 -123 -131 -6 4 -8 3 -4 -4 6 -11 -31 -28 -41 -19 -8 8 77 118 87 112 4 -3 17 -2 28 2 19 7 19 10 5 28 -9 12 -14 14 -10 5 3 -11 -2 -16 -14 -16 -11 0 -19 1 -19 3 0 1 7 23 16 49 18 52 15 60 -16 44 -17 -9 -24 -9 -30 0 -4 6 -14 -9 -25 -37 -24 -63 -74 -153 -86 -153 -13 0 -13 1 36 109 53 119 64 156 44 149 -8 -3 -14 -16 -15 -30 -2 -56 -71 -129 -108 -115 -11 4 -23 -13 -45 -69 -50 -120 -78 -170 -154 -272 -40 -54 -78 -110 -86 -124 -8 -16 -37 -39 -69 -55 -30 -16 -61 -39 -69 -53 -11 -18 -11 -21 -2 -10 15 16 40 24 38 12 -4 -23 2 -52 10 -48 5 3 15 -2 22 -11 11 -13 11 -15 1 -9 -23 14 -44 -14 -37 -51 5 -27 3 -33 -12 -33 -10 0 -13 -3 -8 -9 13 -12 73 -27 62 -15 -5 5 -13 9 -18 9 -5 0 -9 3 -9 7 0 13 41 1 51 -15 4 -5 21 -5 43 1 21 6 38 7 42 1 3 -5 16 -9 30 -9 14 0 35 -5 47 -11 16 -9 22 -9 25 0 2 6 21 11 41 11 25 0 44 7 56 20 17 19 20 19 36 4 14 -12 22 -13 39 -4 12 6 24 9 28 6 3 -3 0 -6 -6 -6 -26 0 -10 -17 26 -28 62 -18 136 -24 162 -13 14 5 18 10 10 10 -11 1 -11 4 -2 13 6 6 29 11 52 10 22 -1 40 3 40 8 0 6 -11 10 -25 10 -14 0 -25 4 -25 10 0 5 -7 7 -15 4 -8 -4 -15 -1 -15 4 0 13 72 10 82 -3 5 -6 8 -6 8 1 0 8 11 8 38 1 31 -8 45 -6 82 12 25 11 56 31 70 44 32 29 90 51 103 38 10 -10 26 -6 103 30 26 11 63 23 83 25 36 5 36 5 11 -10 -32 -20 -8 -21 30 -1 17 9 40 12 58 9 18 -4 42 0 63 11 29 15 58 19 189 26 39 2 138 -9 150 -16 6 -4 9 -14 6 -21 -5 -12 5 -14 54 -12 37 2 64 -2 72 -10 9 -9 4 -12 -25 -12 -20 0 -37 -3 -37 -8 0 -6 44 -6 106 1 12 1 28 8 37 15 9 8 18 9 21 3 3 -5 0 -11 -6 -14 -18 -6 -8 -14 22 -19 21 -2 26 2 28 24 4 32 14 35 33 12 10 -12 10 -20 1 -34 -9 -14 -7 -21 8 -35 24 -22 52 -16 65 13 12 27 25 29 25 4 0 -30 21 -44 36 -24 16 21 18 54 3 69 -15 15 2 22 30 12 22 -9 23 -13 18 -62 l -6 -52 50 -35 c 116 -82 129 -93 129 -110 0 -31 -14 -31 -61 1 -71 48 -119 70 -147 69 -66 -5 -132 1 -132 11 0 5 6 7 12 3 7 -4 10 -3 5 1 -4 5 -18 10 -30 12 -12 2 -40 10 -61 19 -29 11 -70 15 -150 13 -91 -1 -121 2 -170 20 -38 13 -83 21 -125 21 -83 0 -109 -7 -116 -31 -4 -10 -13 -19 -21 -19 -8 0 -14 -4 -14 -9 0 -20 30 -18 71 4 77 40 119 41 194 6 75 -36 81 -36 171 -15 90 20 142 8 207 -49 23 -21 35 -24 67 -20 33 5 40 3 40 -11 0 -18 -15 -22 -25 -6 -3 5 -19 7 -35 3 -23 -4 -38 1 -65 22 -53 40 -85 45 -181 33 -97 -13 -163 -2 -201 34 -28 26 -69 20 -149 -22 -66 -35 -90 -37 -119 -10 -19 17 -36 21 -106 21 -221 2 -263 -2 -359 -31 -173 -53 -343 -78 -534 -79 -88 -1 -118 3 -150 18 -23 11 -74 21 -116 24 -41 3 -109 16 -150 30 -41 13 -101 32 -132 41 -60 18 -88 37 -88 62 0 8 9 14 21 14 37 0 113 53 239 169 117 107 189 190 259 300 36 56 118 272 137 361 14 65 19 211 8 223 -5 5 -59 -21 -129 -62 -17 -9 -34 -27 -40 -39 -10 -24 -27 -30 -24 -10 4 32 -1 39 -20 28 -11 -5 -29 -10 -40 -10 -13 0 -30 -15 -46 -40 -28 -44 -41 -48 -86 -25 -48 25 -91 11 -127 -41 -29 -41 -52 -56 -52 -35 0 17 -27 19 -76 6 -82 -21 -120 -44 -132 -79 -7 -18 -19 -41 -27 -51 -15 -20 -16 -19 -41 9 -23 26 -30 28 -71 23 -41 -4 -53 -12 -98 -61 -29 -31 -56 -56 -62 -56 -5 0 -15 11 -21 24 -14 31 -44 25 -89 -17 -31 -29 -34 -30 -51 -14 -23 21 -46 22 -62 1 -18 -21 -76 -44 -111 -44 -64 0 -91 -83 -70 -219 36 -234 178 -390 396 -436 107 -23 139 -20 178 15 42 36 97 51 97 26 0 -10 -9 -16 -24 -16 -19 0 -28 -9 -43 -45 -10 -24 -25 -46 -33 -49 -9 -2 -7 -4 6 -5 22 -1 232 -196 222 -206 -3 -3 -16 4 -31 15 -14 11 -32 20 -41 20 -25 0 -91 36 -130 70 -18 17 -60 42 -92 56 -32 14 -70 34 -85 45 -30 21 -44 25 -34 9 3 -6 -1 -7 -9 -4 -9 3 -13 10 -10 15 3 5 -2 9 -11 9 -9 0 -30 7 -48 16 l -32 16 35 -31 c 49 -42 296 -207 410 -273 379 -218 640 -317 1100 -418 80 -18 210 -49 290 -70 175 -47 265 -60 413 -60 129 0 243 12 372 40 49 10 112 22 139 25 27 4 72 17 100 29 29 13 76 29 106 36 30 7 93 26 140 42 65 22 95 27 128 22 36 -5 48 -2 81 20 28 20 58 29 124 37 47 6 99 9 114 7 27 -3 27 -4 7 -15 -12 -7 -52 -15 -90 -19 -44 -4 -91 -16 -129 -35 -37 -18 -69 -26 -82 -23 -25 7 -157 -22 -188 -41 -11 -7 -39 -15 -63 -19 -23 -3 -76 -20 -117 -36 -65 -26 -269 -71 -405 -89 l -44 -6 28 -18 c 29 -19 32 -20 111 -11 34 4 64 0 95 -11 49 -19 63 -20 132 -9 32 4 53 3 62 -5 7 -6 54 -16 102 -22 49 -5 114 -14 144 -19 143 -25 173 -24 239 5 61 28 62 28 150 15 126 -18 181 -11 226 29 39 34 69 33 38 -1 -37 -41 -102 -70 -168 -76 -36 -2 -62 -8 -60 -12 2 -4 -17 -10 -43 -13 -27 -3 -82 -17 -123 -32 -63 -22 -95 -26 -223 -30 -135 -4 -152 -2 -190 17 -22 11 -48 26 -56 33 -21 19 -109 32 -150 24 -19 -5 -58 -5 -86 -2 -30 3 -59 1 -70 -5 -17 -10 -15 -11 14 -12 33 0 61 -6 286 -61 66 -16 146 -29 180 -29 70 0 242 24 326 45 30 7 93 18 140 24 52 6 116 22 165 42 87 34 114 51 76 47 -13 -2 -26 3 -28 10 -3 6 0 12 7 12 6 0 8 -4 5 -10 -11 -18 12 -10 30 10 18 20 18 21 -1 15 -19 -7 -19 -6 0 9 12 10 22 12 26 6 3 -5 14 4 24 20 14 25 20 28 36 20 10 -6 44 -7 78 -4 42 5 61 3 67 -6 4 -7 2 -16 -6 -22 -9 -6 -2 -7 21 -2 35 7 106 47 127 72 13 16 115 54 123 46 7 -8 -20 -23 -65 -36 -39 -12 -113 -74 -107 -91 1 -5 -2 -6 -7 -2 -10 6 -91 -30 -91 -40 0 -3 14 1 30 10 18 9 30 11 30 5 0 -6 -10 -15 -22 -20 -33 -14 -57 -30 -111 -73 -31 -25 -55 -37 -67 -34 -10 3 -21 1 -24 -4 -2 -5 -3 -4 -2 3 2 7 9 12 15 10 7 -1 9 2 6 8 -9 15 32 59 70 76 18 8 23 13 13 14 -19 0 -96 -24 -143 -46 -94 -42 -199 -76 -265 -84 -135 -17 -144 -18 -210 -33 -171 -40 -355 -39 -491 2 -66 20 -248 56 -332 65 -30 4 -88 26 -155 61 -128 65 -220 101 -287 110 l -50 8 90 -48 c 287 -153 337 -173 610 -254 210 -62 365 -95 580 -125 16 -3 165 -3 330 -1 221 2 324 8 389 20 z m 1401 -5 c 3 6 -1 10 -10 10 -9 0 -13 -4 -10 -10 3 -6 8 -10 10 -10 2 0 7 4 10 10 z m -1175 55 c 47 18 27 18 -30 1 -25 -8 -36 -15 -25 -15 11 0 36 7 55 14 z m 1103 -4 c 38 20 59 42 46 50 -18 11 -51 -2 -45 -18 4 -11 1 -13 -14 -8 -16 5 -20 2 -20 -14 0 -24 3 -25 33 -10 z m 457 14 c 0 8 7 15 15 15 8 0 15 5 15 11 0 16 -21 6 -38 -19 -9 -14 -10 -22 -3 -22 6 0 11 7 11 15 z m -1193 22 c 15 6 13 8 -12 13 -39 7 -105 0 -105 -11 0 -11 91 -12 117 -2 z m 1288 3 c 3 6 1 10 -4 10 -6 0 -11 -4 -11 -10 0 -6 2 -10 4 -10 3 0 8 4 11 10 z m -1070 10 c 13 6 -5 8 -55 8 -55 0 -67 -2 -45 -8 41 -10 76 -10 100 0 z m 1045 21 c 0 6 -4 7 -10 4 -6 -3 -10 -11 -10 -16 0 -6 4 -7 10 -4 6 3 10 11 10 16 z m -993 -5 c -3 3 -12 4 -19 1 -8 -3 -5 -6 6 -6 11 -1 17 2 13 5 z m 916 26 c 4 12 1 28 -5 35 -7 9 -7 17 2 28 7 8 9 26 5 44 -5 24 -2 30 14 36 12 3 21 13 21 21 0 20 -18 17 -32 -6 -7 -11 -18 -20 -24 -20 -7 0 -12 -18 -12 -43 -1 -24 -6 -55 -11 -70 -11 -28 0 -44 21 -31 7 4 8 3 4 -4 -4 -7 -3 -12 2 -12 5 0 12 10 15 22 z m 165 51 c 63 127 66 204 11 270 -32 38 -199 159 -199 143 0 -2 31 -27 69 -55 79 -57 115 -101 127 -151 10 -44 6 -132 -7 -144 -5 -6 -9 -19 -9 -31 0 -11 -9 -38 -20 -60 -22 -44 -24 -48 -12 -41 5 3 23 34 40 69 z m -68 -32 c 0 14 -17 10 -23 -5 -4 -10 -1 -13 9 -9 7 3 14 9 14 14 z m -2900 69 c 0 6 -8 10 -18 10 -14 0 -15 -2 -2 -10 19 -12 20 -12 20 0 z m 2685 10 c 3 6 2 10 -4 10 -5 0 -13 -4 -16 -10 -3 -6 -2 -10 4 -10 5 0 13 4 16 10 z m -3230 70 c -3 6 -11 10 -16 10 -6 0 -7 -4 -4 -10 3 -6 11 -10 16 -10 6 0 7 4 4 10 z m 3325 2 c 0 19 -18 43 -25 36 -9 -9 4 -48 16 -48 5 0 9 6 9 12 z m -3480 68 c 0 6 -10 10 -22 9 -22 0 -22 -1 -3 -9 11 -5 21 -9 23 -9 1 -1 2 3 2 9 z m 3200 144 c 0 3 -4 8 -10 11 -6 3 -10 1 -10 -4 0 -6 4 -11 10 -11 6 0 10 2 10 4 z m 550 115 c 22 51 40 96 40 100 0 5 -30 -1 -68 -14 -64 -21 -67 -24 -70 -56 -2 -19 -10 -39 -18 -45 -12 -10 -8 -17 28 -47 23 -20 44 -34 45 -33 2 2 21 44 43 95 z m -137 129 c 5 7 29 12 57 12 59 0 171 42 265 99 76 46 145 102 145 117 0 20 -115 105 -195 144 -86 42 -168 60 -276 60 -88 0 -149 20 -213 69 -85 66 -130 81 -242 82 -61 1 -122 -4 -159 -14 -33 -8 -125 -21 -205 -27 -80 -7 -149 -16 -154 -21 -6 -5 3 -9 21 -9 37 0 63 -9 63 -21 0 -13 -142 -11 -277 3 -79 7 -117 8 -124 1 -11 -11 87 -33 147 -33 16 0 54 -7 84 -15 71 -20 169 -12 365 27 153 30 260 37 307 19 45 -17 43 -31 -4 -32 -24 -1 -54 -5 -68 -9 -27 -9 -3 -11 135 -15 35 -1 79 -10 106 -22 25 -12 71 -26 102 -33 31 -7 57 -17 57 -21 0 -17 199 -103 268 -115 47 -9 54 -25 26 -60 -12 -15 -15 -15 -10 -2 3 11 -5 21 -27 31 -124 59 -179 72 -88 21 66 -37 83 -75 52 -108 -17 -18 -19 -25 -9 -29 7 -3 -1 -6 -19 -6 -30 -1 -95 20 -171 55 -19 9 -50 23 -70 32 -20 10 -57 30 -82 44 -36 22 -68 30 -145 39 -55 6 -129 18 -165 26 -88 21 -173 32 -183 23 -4 -4 9 -19 30 -33 41 -28 160 -55 360 -82 91 -12 131 -23 211 -58 54 -24 109 -50 120 -59 22 -15 22 -15 2 -33 -15 -14 -32 -17 -79 -13 l -60 4 24 -28 c 13 -15 30 -44 37 -64 l 13 -36 10 38 c 5 22 14 45 18 52 z m -221 69 c -6 2 -18 2 -24 0 -7 -3 -2 -5 12 -5 14 0 19 2 12 5 z m -50 10 c -6 2 -18 2 -24 0 -7 -3 -2 -5 12 -5 14 0 19 2 12 5 z m -637 133 c -27 12 -43 12 -25 0 8 -5 22 -9 30 -9 10 0 8 3 -5 9 z m -482 61 c -10 17 -24 36 -32 42 -8 7 -2 -7 14 -31 32 -49 45 -57 18 -11 z m 1344 3 c -30 23 -227 47 -227 27 0 -15 72 -27 230 -39 12 -1 11 2 -3 12 z m -23 55 c 6 9 -191 37 -200 28 -7 -7 103 -29 178 -36 9 0 19 3 22 8 z m -339 71 c 8 13 -135 13 -155 0 -10 -7 10 -10 67 -10 45 0 85 4 88 10 z m 783 113 c 77 84 90 121 55 159 -20 22 -36 23 -53 3 -16 -19 -24 -12 -26 25 -3 54 -38 87 -117 110 -92 27 -198 65 -266 96 -29 14 -55 23 -57 21 -2 -2 14 -21 36 -42 22 -22 40 -44 40 -50 0 -5 32 -41 71 -80 39 -39 88 -87 109 -109 22 -21 44 -54 51 -73 8 -26 15 -33 28 -28 29 12 43 10 55 -7 9 -15 6 -23 -17 -43 -15 -14 -27 -30 -27 -35 0 -10 31 -31 40 -27 3 1 38 37 78 80 z m -6033 -53 c 3 6 -4 10 -17 10 -18 0 -20 -2 -8 -10 19 -12 18 -12 25 0 z m 892 26 c -3 3 -12 4 -19 1 -8 -3 -5 -6 6 -6 11 -1 17 2 13 5 z m 81 1 c -10 2 -28 2 -40 0 -13 -2 -5 -4 17 -4 22 -1 32 1 23 4 z m 3359 -1 c -3 3 -12 4 -19 1 -8 -3 -5 -6 6 -6 11 -1 17 2 13 5 z m 1331 165 c -124 190 -256 326 -372 385 -68 34 -74 36 -146 29 -91 -8 -191 -36 -288 -82 -41 -20 -106 -41 -145 -48 -40 -7 -64 -14 -55 -14 12 -1 15 -6 11 -17 -5 -14 -2 -16 18 -11 67 15 148 40 227 71 154 59 238 69 363 40 59 -13 77 -23 110 -57 96 -100 179 -200 220 -267 39 -65 147 -195 155 -187 2 2 -42 73 -98 158 z m -100 -102 c -31 22 -80 58 -108 80 -28 23 -56 41 -62 41 -6 0 23 -26 63 -57 94 -72 139 -103 152 -103 6 0 -15 18 -45 39 z m -4275 -22 c -7 2 -21 2 -30 0 -10 -3 -5 -5 12 -5 17 0 24 2 18 5 z m 1387 13 c 0 6 -4 10 -9 10 -6 0 -13 -4 -16 -10 -3 -6 1 -10 9 -10 9 0 16 4 16 10 z m -1345 10 c 3 6 2 10 -4 10 -5 0 -13 -4 -16 -10 -3 -6 -2 -10 4 -10 5 0 13 4 16 10 z m 2644 -6 c -4 4 -144 65 -189 83 -9 4 -5 -5 9 -20 14 -15 29 -23 38 -20 9 4 20 -1 25 -10 5 -10 21 -17 36 -18 15 0 36 -4 47 -9 22 -9 41 -13 34 -6 z m -184 16 c -3 6 -14 10 -23 9 -14 0 -13 -2 3 -9 27 -11 27 -11 20 0 z m -1105 10 c 0 6 -4 10 -10 10 -6 0 -10 -4 -10 -10 0 -6 4 -10 10 -10 6 0 10 4 10 10 z m 2080 6 c 0 3 -21 14 -48 26 -77 34 -136 83 -176 147 -35 57 -69 91 -90 91 -5 0 0 -10 11 -22 28 -32 73 -113 73 -132 0 -12 -7 -15 -22 -12 -188 40 -255 35 -347 -24 -28 -19 -49 -35 -47 -37 2 -3 24 1 47 7 24 7 103 12 174 12 118 0 139 -3 225 -30 84 -27 200 -42 200 -26 z m -4340 15 c 0 5 -4 7 -10 4 -6 -3 -10 -1 -10 4 0 6 -8 11 -18 11 -15 -1 -15 -2 2 -15 23 -18 36 -19 36 -4 z m 1090 -1 c 0 6 -2 10 -4 10 -3 0 -8 -4 -11 -10 -3 -6 -1 -10 4 -10 6 0 11 4 11 10 z m 200 -1 c 33 1 41 4 30 11 -18 11 -97 13 -166 3 -44 -6 -46 -8 -19 -13 17 -3 48 -5 70 -4 22 1 60 2 85 3 z m 3086 32 c -26 23 -76 85 -111 138 -81 124 -132 180 -206 230 -80 54 -173 82 -271 82 -96 0 -117 -10 -231 -115 -94 -86 -159 -131 -179 -123 -8 3 0 10 16 16 40 16 28 23 -19 10 -102 -28 -204 21 -307 148 -69 85 -94 129 -153 272 -35 82 -68 141 -121 212 -110 147 -146 158 -290 84 -49 -25 -102 -56 -119 -70 -30 -25 -30 -25 -6 -25 13 0 60 15 105 34 98 41 127 48 146 36 13 -9 13 -10 0 -11 -8 0 -4 -5 10 -9 20 -6 16 -8 -23 -9 -27 -1 -61 -7 -75 -15 -15 -8 -36 -18 -47 -22 -18 -7 -17 -8 7 -12 17 -2 28 -10 28 -18 0 -8 -4 -12 -10 -9 -5 3 -15 -3 -22 -14 -8 -14 -16 -17 -24 -10 -26 22 -21 -9 6 -34 l 29 -28 17 36 c 30 63 81 56 166 -22 58 -54 87 -111 98 -192 5 -31 18 -83 29 -115 12 -33 27 -89 34 -125 10 -47 19 -67 30 -69 14 -3 16 1 8 20 -5 13 -19 58 -30 100 -12 42 -24 85 -28 94 -13 35 16 3 46 -51 41 -73 91 -127 167 -181 78 -56 178 -98 202 -86 9 5 43 12 75 16 71 8 169 41 222 75 48 31 296 151 310 151 5 -1 28 -23 50 -50 32 -40 50 -53 92 -65 68 -20 142 -80 173 -140 22 -42 38 -56 130 -112 58 -34 109 -63 114 -63 5 0 -12 19 -38 41 z m -2342 0 c -3 5 -10 7 -15 3 -5 -3 -7 -10 -3 -15 3 -5 10 -7 15 -3 5 3 7 10 3 15 z m 46 0 c 0 14 -17 10 -23 -5 -4 -10 -1 -13 9 -9 7 3 14 9 14 14 z m 1592 -14 c -6 2 -18 2 -24 0 -7 -3 -2 -5 12 -5 14 0 19 2 12 5 z m -1787 29 c 14 9 25 20 25 25 0 16 -25 9 -43 -11 -16 -19 -19 -19 -47 -5 -34 18 -44 19 -35 4 8 -11 42 -27 63 -28 7 -1 24 6 37 15 z m 1275 -12 c 0 2 -9 6 -20 9 -11 3 -20 1 -20 -4 0 -5 9 -9 20 -9 11 0 20 2 20 4 z m -347 33 c -7 2 -21 2 -30 0 -10 -3 -4 -5 12 -5 17 0 24 2 18 5 z m 162 39 c -35 28 -41 29 -61 9 -14 -13 -13 -15 3 -16 16 0 16 -1 -2 -10 -15 -7 -9 -8 22 -5 24 2 46 0 49 -6 3 -5 9 -6 13 -3 3 4 -8 18 -24 31 z m -315 16 c -1 8 -6 6 -15 -6 -20 -26 -19 -42 0 -22 8 8 15 21 15 28 z m 2071 -7 c 40 14 81 25 91 25 10 0 18 4 18 10 0 15 -20 12 -96 -14 -101 -34 -167 -40 -254 -22 -40 9 -91 24 -112 35 -40 20 -50 15 -20 -12 15 -13 86 -36 162 -50 45 -9 138 3 211 28 z m -1617 4 c 4 5 -29 21 -71 35 -115 37 -364 98 -379 92 -11 -4 -12 -10 -2 -32 7 -14 14 -21 16 -15 2 7 -2 18 -8 26 -9 11 -9 15 -1 15 6 0 14 -7 17 -15 4 -8 11 -12 16 -9 6 4 8 -2 3 -15 -5 -15 -2 -21 10 -21 10 0 13 5 9 11 -5 9 1 10 22 4 16 -4 52 -8 79 -9 27 -1 61 -7 75 -12 43 -19 174 -61 192 -63 9 0 19 3 22 8 z m -1309 21 c 3 6 -1 10 -9 10 -8 0 -18 -4 -21 -10 -3 -6 1 -10 9 -10 8 0 18 4 21 10 z m 879 15 c 3 9 0 15 -9 15 -9 0 -12 -6 -9 -15 4 -8 7 -15 9 -15 2 0 5 7 9 15 z m 999 41 c 18 9 48 31 68 48 19 17 44 37 55 44 10 7 2 4 -19 -7 -21 -12 -48 -21 -60 -21 -15 0 -18 -3 -9 -9 16 -10 2 -23 -54 -51 -22 -11 -33 -19 -26 -20 7 0 27 7 45 16 z m 1923 374 c -5 250 -12 318 -51 525 -152 808 -602 1523 -1275 2029 -494 371 -1068 601 -1678 672 -164 19 -516 22 -684 5 -781 -76 -1504 -408 -2055 -943 -226 -221 -382 -410 -520 -633 l -56 -90 104 100 c 120 116 185 162 466 331 258 155 318 177 483 178 90 0 143 -6 245 -28 213 -46 565 -166 982 -332 l 391 -157 24 28 c 42 48 85 23 111 -65 5 -18 83 -51 542 -234 187 -74 396 -160 465 -191 69 -31 231 -103 360 -160 129 -57 289 -129 355 -160 163 -77 427 -195 437 -195 4 0 8 14 8 31 0 41 16 69 41 69 24 0 39 -36 39 -96 l 0 -45 308 -151 c 368 -180 613 -311 661 -352 51 -46 150 -182 183 -254 15 -34 35 -93 42 -130 10 -46 22 -72 38 -85 l 23 -19 8 58 c 5 33 6 165 3 294 z m -435 -297 c -29 43 -61 75 -61 63 0 -7 82 -106 88 -106 2 0 -10 19 -27 43 z m -509 -6 c -6 2 -18 2 -24 0 -7 -3 -2 -5 12 -5 14 0 19 2 12 5 z m -145 9 c -3 3 -12 4 -19 1 -8 -3 -5 -6 6 -6 11 -1 17 2 13 5 z m -1947 8 c 0 2 -9 6 -20 9 -11 3 -18 1 -14 -4 5 -9 34 -13 34 -5 z m 2349 22 c -7 8 -26 22 -43 31 -33 16 -28 9 18 -25 34 -26 44 -28 25 -6 z m 471 19 c -10 12 -60 18 -60 7 0 -4 44 -21 59 -21 11 -1 11 2 1 14 z m -2653 27 c -9 13 -37 57 -62 98 -25 41 -55 86 -66 100 l -21 25 18 -30 c 10 -17 32 -55 49 -85 43 -76 68 -114 80 -122 17 -13 18 -9 2 14 z m 2534 26 c -25 26 -57 55 -71 64 -28 20 -54 24 -28 5 9 -7 33 -33 53 -57 35 -43 56 -58 81 -59 6 -1 -9 20 -35 47 z m -174 -22 c 0 18 -44 50 -54 40 -4 -4 2 -9 14 -12 12 -3 23 -14 26 -25 6 -23 14 -25 14 -3 z m -1621 43 c -5 7 -35 16 -121 37 -11 2 3 -7 30 -20 50 -24 101 -34 91 -17 z m 1916 88 c -60 93 -198 201 -359 282 -65 32 -64 25 2 -16 54 -33 102 -68 200 -143 18 -14 66 -59 106 -101 41 -42 76 -75 78 -73 2 2 -10 25 -27 51 z m -271 3 c -13 11 -28 20 -35 20 -6 -1 0 -10 13 -20 13 -11 28 -20 35 -20 6 1 0 10 -13 20 z m -2741 29 c -11 22 -25 43 -32 47 -8 5 -7 -1 3 -16 9 -14 21 -35 28 -48 6 -12 14 -22 17 -22 2 0 -5 18 -16 39 z m 111 37 c -62 66 -70 79 -64 105 5 26 2 30 -30 44 -45 19 -296 31 -352 17 l -40 -10 33 -1 c 44 -1 201 -36 277 -61 33 -11 70 -20 83 -20 12 0 22 -4 22 -10 0 -13 120 -140 132 -140 6 0 -22 34 -61 76 z m 2579 -41 c 0 3 -21 16 -48 28 -118 59 -228 121 -242 137 -8 10 -25 20 -38 23 -18 4 -12 -5 24 -36 68 -61 136 -102 201 -121 32 -9 65 -21 73 -26 17 -10 30 -12 30 -5 z m -170 9 c 0 2 -8 10 -18 17 -15 13 -16 12 -3 -3 13 -17 21 -22 21 -14 z m -2159 89 c -33 67 -100 151 -134 168 -15 8 -11 0 14 -27 49 -53 85 -104 94 -133 12 -38 49 -95 53 -82 2 7 -10 40 -27 74 z m 1960 -63 c 28 6 58 6 78 0 28 -8 30 -7 21 10 -12 22 -63 66 -101 85 -16 9 -57 18 -91 21 -127 12 -219 111 -248 265 -6 30 -17 74 -24 99 -8 25 -16 100 -19 168 -2 67 -7 125 -11 129 -16 16 -21 -20 -22 -165 0 -87 -3 -173 -8 -192 -5 -26 -3 -40 9 -55 9 -11 13 -13 9 -5 -5 12 -4 12 6 3 15 -13 23 -66 9 -57 -5 3 -7 9 -4 14 3 5 1 11 -5 15 -6 4 -10 -5 -10 -19 0 -14 -4 -26 -9 -26 -18 0 -33 31 -29 58 l 4 29 -32 -19 c -28 -16 -39 -18 -71 -9 -58 16 -91 14 -103 -8 -7 -13 -7 -22 0 -26 5 -3 10 -1 10 5 0 14 28 7 102 -27 32 -15 58 -33 58 -41 0 -12 -4 -12 -25 2 -13 9 -28 16 -32 16 -4 0 19 -18 52 -40 33 -22 74 -57 92 -77 18 -21 32 -35 33 -30 0 4 -19 28 -41 52 -35 38 -38 45 -20 42 12 -2 27 -9 34 -17 10 -10 9 -11 -3 -5 -13 8 -13 7 0 -9 8 -11 16 -14 18 -7 2 6 17 1 36 -14 18 -14 37 -25 41 -25 5 0 20 -11 34 -24 47 -45 131 -80 195 -83 32 -1 60 -4 63 -7 3 -3 -15 -11 -41 -18 -45 -12 -67 -33 -24 -23 13 3 44 9 69 15 z m -849 -3 c -6 2 -18 2 -24 0 -7 -3 -2 -5 12 -5 14 0 19 2 12 5 z m 100 10 c -6 2 -18 2 -24 0 -7 -3 -2 -5 12 -5 14 0 19 2 12 5 z m 176 15 c -7 21 -67 51 -86 43 -14 -5 -10 -11 23 -31 44 -26 69 -31 63 -12 z m -498 9 c -36 5 -113 16 -172 24 -177 24 -259 72 -375 218 -57 71 -145 147 -170 147 -8 0 8 -18 35 -40 53 -41 64 -54 160 -186 67 -91 102 -116 205 -150 63 -20 91 -23 227 -22 135 0 147 2 90 9 z m -451 12 c -2 1 -19 12 -37 25 -17 12 -32 18 -32 12 0 -12 62 -52 69 -45 2 3 2 6 0 8 z m 1815 12 c -10 8 -23 15 -28 15 -6 0 -1 -7 10 -15 10 -8 23 -15 28 -15 6 0 1 7 -10 15 z m -2844 20 c 0 13 -20 20 -95 30 -39 5 -39 5 20 -24 61 -29 75 -31 75 -6 z m 404 7 c -4 7 -20 32 -35 54 -16 23 -26 44 -23 46 9 9 -19 58 -33 58 -16 0 -16 -1 -2 -37 10 -27 87 -133 96 -133 2 0 1 6 -3 12 z m 510 63 c -20 16 -83 51 -74 42 19 -21 84 -66 88 -62 3 3 -3 12 -14 20 z m 711 5 c 16 11 38 20 48 20 10 0 34 7 55 16 44 19 25 32 -21 13 -64 -25 -137 -60 -137 -64 0 -11 27 -4 55 15 z m 130 -2 c -3 3 -11 0 -18 -7 -9 -10 -8 -11 6 -5 10 3 15 9 12 12 z m -287 22 c 54 11 124 29 157 40 91 32 216 37 290 11 32 -11 60 -19 62 -18 2 2 -23 17 -54 33 -74 37 -173 40 -277 6 -53 -17 -76 -20 -100 -13 -17 5 -58 14 -91 20 -85 15 -115 50 -226 261 -50 96 -106 198 -124 225 -95 148 -186 225 -265 225 -69 0 -198 -37 -248 -70 -25 -17 -55 -30 -66 -30 -12 0 -90 -23 -173 -50 -84 -28 -161 -50 -170 -51 -16 -1 -5 -9 14 -11 5 -1 13 -8 19 -15 9 -13 19 -11 71 11 62 26 175 50 296 62 73 7 159 -13 218 -51 20 -13 66 -37 101 -53 88 -40 145 -93 179 -169 20 -42 52 -85 104 -138 41 -42 75 -81 75 -86 0 -13 -14 -11 -29 3 -10 11 -11 10 -6 -3 3 -9 20 -22 38 -30 18 -8 31 -20 29 -27 -1 -8 1 -11 5 -9 5 3 24 -4 43 -14 26 -15 29 -18 10 -13 -24 6 -24 5 -5 -9 11 -8 38 -18 60 -23 l 40 -9 -55 -3 c -37 -2 -75 4 -120 19 -97 32 -132 53 -215 125 -71 62 -178 134 -198 134 -6 0 18 -18 51 -40 34 -22 103 -73 152 -115 93 -77 145 -109 215 -131 56 -18 83 -17 193 6 z m -2376 10 c 10 0 18 4 18 10 0 6 -16 10 -36 10 -24 0 -33 -4 -28 -12 5 -8 2 -9 -10 -5 -11 4 -15 3 -10 -4 3 -6 16 -8 28 -5 11 3 29 6 38 6 z m 3298 4 c 0 2 -8 10 -18 17 -15 13 -16 12 -3 -3 13 -17 21 -22 21 -14 z m 72 33 c -15 6 -16 33 -1 33 6 0 8 7 5 17 -6 14 -3 14 16 -3 l 22 -19 -18 30 c -22 35 -65 74 -84 75 -16 0 -15 -10 4 -56 l 16 -39 -41 39 c -22 22 -44 36 -48 33 -10 -11 105 -117 125 -116 11 0 12 2 4 6 z m -3368 22 c 4 5 -3 7 -14 4 -23 -6 -26 -13 -6 -13 8 0 17 4 20 9 z m 63 7 c -3 3 -12 4 -19 1 -8 -3 -5 -6 6 -6 11 -1 17 2 13 5 z m 898 4 c 18 8 18 9 -5 9 -14 0 -34 -4 -45 -9 -18 -8 -18 -9 5 -9 14 0 34 4 45 9 z m -2695 19 c 0 4 -32 22 -70 39 -38 17 -70 36 -70 41 0 6 4 11 9 11 28 0 215 -49 269 -71 14 -5 22 -5 22 1 0 14 -25 23 -175 65 -146 40 -233 71 -255 92 -13 12 6 13 135 9 83 -2 184 -10 225 -16 41 -6 102 -16 136 -21 76 -11 110 -11 69 2 -55 17 -227 49 -261 49 -19 0 -34 3 -34 8 0 4 -34 18 -75 31 -41 12 -75 26 -75 29 1 11 150 117 200 143 32 17 62 24 108 24 58 1 64 3 92 35 16 19 29 39 30 44 0 5 -41 6 -98 2 -123 -9 -163 -27 -244 -115 -136 -147 -202 -174 -334 -141 -43 11 -79 19 -81 17 -6 -6 172 -142 270 -206 73 -48 101 -61 106 -52 7 10 18 9 52 -7 24 -11 45 -21 47 -21 1 -1 2 3 2 8 z m 1047 23 c -3 8 -6 5 -6 -6 -1 -11 2 -17 5 -13 3 3 4 12 1 19 z m 142 33 l 0 20 -9 -20 c -5 -11 -9 -29 -9 -40 l 0 -20 9 20 c 5 11 9 29 9 40 z m 1306 -35 c -3 6 -13 10 -20 10 -31 0 -95 33 -110 56 l -16 25 31 -16 c 18 -9 34 -14 37 -12 2 3 -4 8 -15 12 -23 7 -92 79 -92 95 0 6 -11 8 -24 4 -16 -4 -64 8 -133 31 -162 55 -337 58 -477 9 -23 -9 -77 -15 -121 -16 l -80 0 50 -14 c 27 -7 54 -12 60 -10 5 1 16 -3 23 -11 8 -7 18 -10 24 -7 6 4 5 10 -3 15 -8 5 -9 9 -4 8 5 0 21 -7 35 -15 14 -8 17 -13 8 -10 -10 3 -18 1 -18 -4 0 -14 12 -13 72 9 152 56 312 31 493 -76 119 -71 173 -92 233 -93 33 0 51 4 47 10 z m 104 10 c 24 13 -42 40 -111 45 -44 4 -57 2 -43 -4 11 -5 30 -10 42 -10 16 -1 21 -6 17 -16 -4 -9 0 -15 10 -15 9 0 16 -5 16 -10 0 -11 42 -4 69 10 z m 1754 27 c 4 4 32 5 62 4 64 -3 70 8 20 39 -19 12 -39 29 -44 37 -8 15 -12 14 -36 -5 -15 -12 -34 -22 -41 -22 -7 0 -18 -9 -24 -21 -9 -16 -8 -20 2 -18 7 1 22 0 33 -1 15 -2 12 -4 -10 -10 l -30 -8 31 -1 c 17 0 34 2 37 6 z m -1653 13 c 0 13 -117 109 -157 128 -46 22 -42 39 6 32 13 -1 13 1 2 14 -11 13 -11 16 1 16 19 0 50 -34 41 -44 -4 -4 0 -4 9 -1 9 4 19 2 23 -4 13 -22 24 -10 14 15 -8 24 -8 25 6 14 25 -21 17 5 -11 30 -17 17 -23 31 -20 47 4 12 0 28 -9 37 -17 16 -19 26 -7 26 11 0 34 -49 28 -59 -2 -3 4 -18 15 -31 l 20 -25 -7 30 c -4 17 -19 50 -35 75 -15 25 -31 57 -34 73 -4 15 -11 29 -15 32 -12 8 -24 -16 -13 -24 13 -8 33 -46 33 -61 0 -7 -7 -10 -15 -6 -8 3 -15 1 -15 -4 0 -6 4 -10 9 -10 5 0 4 -11 -2 -24 -7 -13 -15 -22 -18 -20 -4 2 -9 -3 -13 -11 -3 -9 -12 -12 -22 -8 -14 5 -16 3 -11 -11 5 -13 1 -19 -13 -23 -16 -4 -18 -9 -9 -26 10 -18 9 -19 -17 -14 -53 11 -185 78 -226 115 -25 22 -37 29 -31 17 19 -34 50 -56 148 -105 73 -36 91 -49 75 -53 -12 -3 -49 9 -91 29 -39 19 -74 32 -77 29 -9 -9 30 -33 106 -64 68 -28 76 -29 107 -17 39 17 55 9 150 -72 60 -52 75 -60 75 -42 z m -1085 20 c -11 5 -27 9 -35 9 -9 0 -8 -4 5 -9 11 -5 27 -9 35 -9 9 0 8 4 -5 9 z m 962 36 c -9 10 -47 12 -47 3 0 -5 8 -9 18 -10 12 0 13 -2 3 -6 -11 -5 -11 -7 0 -14 13 -8 37 17 26 27 z m -67 -18 c 0 15 -24 32 -44 32 -20 -1 -20 -1 3 -20 24 -21 41 -26 41 -12 z m 1761 18 c 30 8 67 21 83 29 28 12 28 13 8 24 -11 6 -29 11 -39 11 -10 0 -29 7 -41 16 -19 13 -22 21 -16 50 3 18 3 42 -1 51 -6 17 -7 17 -16 1 -5 -9 -22 -19 -38 -23 -16 -3 -35 -14 -43 -23 -27 -32 -78 -122 -69 -122 5 0 12 6 14 12 4 10 8 10 15 -1 9 -13 16 -12 53 2 53 21 62 14 24 -18 -27 -22 -28 -24 -9 -25 11 0 45 7 75 16 z m 449 40 c 0 15 -38 43 -134 101 -66 40 -71 41 -74 22 -3 -18 -6 -17 -35 13 -18 19 -42 34 -54 35 -12 1 -44 12 -72 26 -47 22 -50 22 -54 5 -3 -10 -2 -16 2 -14 10 6 49 -76 44 -91 -2 -7 -11 -9 -20 -6 -11 4 -14 2 -11 -8 2 -8 15 -15 29 -17 13 -2 39 -18 58 -35 l 34 -32 -19 29 c -18 29 -18 29 1 18 11 -6 28 -20 38 -32 15 -18 25 -21 55 -15 66 12 161 15 167 4 4 -6 -4 -8 -22 -4 -26 6 -27 5 -10 -9 11 -8 25 -12 33 -9 9 3 14 -2 14 -13 1 -18 1 -18 15 0 8 11 15 25 15 32 z m -961 8 c -19 18 -182 117 -213 130 -65 27 -55 17 29 -27 44 -23 102 -59 129 -80 27 -20 51 -35 54 -32 3 3 3 7 1 9 z m -869 -1 c 0 2 -10 12 -21 23 -22 19 -22 19 -10 -4 10 -18 31 -31 31 -19 z m -144 81 c -20 37 -39 66 -41 66 -7 0 15 -53 41 -98 41 -69 40 -40 0 32 z m 1368 -6 c 39 37 82 75 96 83 l 25 16 -24 52 c -33 70 -54 88 -87 73 -13 -7 -36 -12 -49 -12 -18 0 -32 -11 -51 -39 -29 -44 -44 -53 -65 -40 -22 14 -65 11 -79 -6 -15 -18 -5 -35 20 -35 11 0 25 -10 31 -22 18 -35 58 -55 46 -24 -4 10 -1 13 9 9 8 -3 14 -19 14 -39 0 -38 18 -84 33 -84 6 0 42 30 81 68 z m -3671 4 c -21 18 -40 34 -43 36 -3 3 4 9 14 16 11 6 42 31 69 55 63 54 102 71 167 71 27 0 50 4 50 10 0 16 -86 12 -128 -5 -20 -9 -58 -30 -85 -47 -26 -17 -50 -28 -53 -25 -11 11 56 126 86 147 22 16 45 21 88 21 53 0 56 2 37 15 -23 18 -64 14 -117 -10 -22 -9 -38 -12 -38 -6 0 17 63 50 97 50 30 0 256 -59 368 -96 27 -9 76 -18 110 -20 l 60 -4 -52 21 c -28 11 -80 45 -115 75 -117 99 -229 141 -345 131 -100 -10 -154 -39 -239 -131 -92 -99 -129 -157 -120 -191 6 -24 45 -54 126 -98 19 -11 44 -26 55 -33 39 -27 45 -13 8 18 z m 2521 19 c -16 17 -42 40 -59 52 -28 20 -28 19 9 -26 38 -47 67 -70 75 -61 3 2 -9 18 -25 35 z m -744 -25 c 0 3 -20 31 -44 62 -53 70 -72 106 -82 157 -9 51 -74 121 -124 135 -41 11 -112 1 -110 -15 0 -6 18 -9 39 -7 75 7 127 -44 166 -163 10 -27 26 -66 38 -85 16 -28 8 -22 -45 30 -70 69 -154 125 -203 135 -21 4 -14 -2 22 -19 68 -32 113 -65 191 -140 34 -33 62 -57 62 -52 0 4 14 -4 31 -18 28 -24 59 -34 59 -20 z m -485 44 c 11 5 15 9 9 9 -7 1 -36 18 -65 38 -73 50 -223 105 -267 97 -44 -8 -51 -24 -10 -24 19 0 43 -7 54 -15 18 -14 17 -14 -16 -15 -19 0 -55 -6 -80 -14 l -45 -14 80 -6 c 125 -10 155 -16 230 -41 80 -26 83 -27 110 -15 z m 705 10 c -14 11 -30 20 -35 20 -5 0 3 -9 20 -20 38 -25 48 -25 15 0 z m -2840 -4 c 0 4 -18 26 -40 50 -60 65 -54 97 31 164 28 22 55 40 59 40 5 0 0 -19 -10 -42 -32 -70 -23 -88 11 -23 66 131 132 167 319 172 89 3 148 0 205 -12 138 -28 171 -29 199 -7 l 25 19 -74 6 c -40 3 -88 12 -107 20 -39 19 -205 63 -268 72 -25 4 -68 14 -97 22 -44 14 -61 14 -105 4 -61 -13 -184 -74 -257 -126 -103 -74 -122 -204 -43 -289 38 -40 152 -93 152 -70 z m 411 14 c 9 0 22 7 29 14 12 15 39 26 118 46 59 15 55 34 -5 25 -77 -11 -183 -67 -183 -96 0 -10 3 -10 12 -1 7 7 20 12 29 12 z m 3890 13 c -10 9 -11 8 -5 -6 3 -10 9 -15 12 -12 3 3 0 11 -7 18 z m -487 16 c -11 10 -64 24 -64 16 0 -7 40 -24 60 -24 8 -1 10 2 4 8 z m -229 47 c 51 24 66 26 124 20 36 -3 78 -9 93 -12 18 -4 28 -2 28 5 0 6 -10 12 -22 13 -13 0 -3 4 22 7 l 45 6 -45 16 c -53 18 -148 10 -239 -20 -87 -28 -134 -34 -182 -20 -47 12 -46 14 16 24 30 5 36 9 23 16 -10 5 -40 4 -79 -4 l -63 -13 54 -22 c 30 -13 64 -27 75 -32 37 -16 92 -10 150 16 z m -1205 -1 c 0 8 -74 53 -100 60 -14 3 2 -9 35 -29 67 -39 65 -38 65 -31 z m 298 17 c -8 7 -27 24 -43 38 -26 21 -25 20 4 -13 19 -20 39 -37 44 -37 4 0 2 6 -5 12 z m 572 -8 c 0 2 -8 10 -18 17 -15 13 -16 12 -3 -3 13 -17 21 -22 21 -14 z m -430 15 c 0 5 -6 12 -12 14 -7 3 -3 6 10 6 37 2 25 18 -17 24 -39 5 -137 40 -219 77 -47 22 -61 25 -46 10 14 -14 153 -80 169 -80 7 0 16 -4 20 -9 3 -6 -3 -8 -15 -6 -20 4 -37 -11 -26 -23 4 -3 28 -9 54 -13 72 -10 82 -10 82 0 z m -1095 12 c -56 11 -95 11 -95 -1 0 -6 28 -10 68 -9 62 1 64 2 27 10 z m 329 11 c 27 39 19 55 -12 25 -24 -23 -33 -26 -53 -18 -13 5 -18 10 -11 10 6 1 12 8 12 16 0 12 4 13 18 4 22 -14 34 -4 164 120 43 41 80 72 83 69 4 -3 28 3 56 13 27 11 62 19 78 19 16 0 31 4 33 10 2 5 13 7 26 3 15 -3 21 -11 18 -20 -3 -8 0 -13 7 -12 6 2 42 -1 78 -5 50 -6 80 -4 122 8 30 9 64 13 74 10 12 -5 15 -4 8 4 -5 6 -28 14 -49 18 -31 5 -37 4 -31 -6 6 -11 -7 -12 -66 -8 -83 7 -138 26 -117 41 9 6 8 7 -5 3 -10 -3 -27 0 -38 8 -19 13 -19 14 3 21 13 4 59 10 103 14 l 80 7 -70 8 c -64 8 -77 6 -170 -25 -55 -19 -112 -36 -127 -39 -16 -3 -71 -47 -135 -107 -60 -55 -137 -117 -172 -136 l -62 -34 33 -13 c 18 -6 42 -16 53 -20 34 -14 53 -11 69 12 z m -437 4 c -3 3 -12 4 -19 1 -8 -3 -5 -6 6 -6 11 -1 17 2 13 5 z m 2760 0 c -3 3 -12 4 -19 1 -8 -3 -5 -6 6 -6 11 -1 17 2 13 5 z m -3107 23 c -8 5 -26 11 -40 15 -21 5 -20 3 5 -9 32 -15 60 -20 35 -6 z m 3013 54 c -3 5 -2 7 4 4 11 -7 83 10 97 23 5 5 -7 24 -25 44 -52 55 -59 64 -59 76 0 16 11 12 39 -12 20 -19 18 -13 -9 25 -19 27 -36 43 -38 37 -3 -7 2 -16 9 -21 13 -8 5 -13 -15 -10 -16 3 -46 -10 -46 -20 0 -6 3 -8 8 -5 12 7 47 -16 77 -52 44 -53 18 -52 -31 1 -24 27 -44 43 -44 37 0 -7 -9 -6 -28 3 -80 42 -115 57 -121 52 -3 -3 1 -10 9 -15 8 -6 10 -10 4 -10 -6 0 -19 10 -30 22 -10 12 -13 18 -6 14 6 -4 12 -2 12 3 0 6 -4 11 -9 11 -5 0 -17 3 -27 7 -12 4 -15 3 -10 -5 5 -9 1 -9 -18 -2 -38 14 -32 -1 13 -36 22 -17 58 -52 80 -79 45 -54 135 -117 157 -108 8 3 11 10 7 16 z m -4072 5 c 13 15 12 16 -3 3 -17 -13 -22 -21 -14 -21 2 0 10 8 17 18 z m 1494 12 c -25 26 -28 33 -17 50 11 18 6 23 -48 57 -33 21 -89 57 -124 79 -36 23 -88 50 -115 59 -55 18 -62 28 -32 45 37 19 110 11 186 -21 70 -29 132 -36 128 -14 -1 5 -32 23 -70 38 -37 15 -77 36 -87 47 -19 18 -19 20 -2 26 10 4 43 -1 73 -10 61 -20 85 -15 29 5 -20 7 -36 17 -36 21 0 7 11 10 74 23 24 5 66 -11 66 -25 0 -6 -4 -8 -10 -5 -6 3 -10 2 -10 -3 0 -13 132 -77 196 -95 27 -8 73 -27 101 -41 28 -15 68 -29 89 -32 l 39 -4 -35 14 c -20 7 -61 27 -90 44 -30 16 -86 40 -125 52 -39 13 -78 29 -89 36 -17 12 -16 13 15 19 37 7 144 -22 212 -57 22 -11 41 -17 43 -15 9 9 -26 28 -102 56 -122 45 -148 57 -135 66 26 15 102 8 129 -12 36 -27 57 -32 134 -38 68 -4 162 -41 151 -58 -3 -6 -1 -7 6 -3 6 4 27 2 46 -5 27 -10 38 -10 47 -1 9 9 8 12 -7 12 -11 0 -49 14 -85 31 -40 19 -91 34 -135 39 -45 5 -108 23 -175 51 -76 31 -119 43 -157 43 -29 1 -53 3 -53 6 0 14 33 50 62 68 18 11 62 30 97 42 97 34 184 25 296 -28 48 -23 96 -42 107 -42 39 0 98 -23 130 -52 30 -26 77 -40 63 -18 -4 6 -11 7 -17 4 -7 -4 -8 -2 -4 5 4 7 -11 32 -39 63 -25 28 -67 89 -92 135 -67 119 -71 123 -147 123 -75 0 -172 -28 -269 -77 -92 -46 -157 -93 -249 -179 -56 -53 -100 -84 -164 -115 -49 -24 -118 -61 -156 -84 -64 -40 -71 -42 -170 -48 -104 -6 -174 -24 -256 -66 -40 -20 -62 -52 -24 -36 54 24 161 45 200 39 28 -4 42 -3 42 5 0 7 24 11 65 11 56 0 76 -5 128 -33 34 -19 82 -36 106 -40 25 -3 65 -20 95 -40 28 -18 64 -42 81 -52 17 -10 47 -36 67 -57 21 -21 41 -38 45 -38 4 0 -6 14 -22 30 z m 100 50 c -134 75 -152 109 -27 50 86 -40 101 -38 27 5 -75 43 -108 51 -135 32 -20 -14 -20 -14 -1 -31 29 -27 163 -95 186 -96 11 0 -10 17 -50 40 z m -1460 0 c 27 10 43 19 35 19 -14 0 -101 -36 -90 -38 3 -1 28 8 55 19 z m 2615 -1 c 0 16 -110 129 -131 136 -10 4 -19 11 -19 17 0 5 7 8 15 4 8 -3 15 -3 15 0 0 11 -87 44 -115 43 -28 0 -26 -2 25 -29 30 -16 89 -63 130 -105 41 -41 76 -75 78 -75 1 0 2 4 2 9 z m 355 1 c 13 6 15 9 5 9 -8 0 -22 -4 -30 -9 -18 -12 -2 -12 25 0 z m 1255 -6 c 0 2 -7 7 -16 10 -8 3 -12 2 -9 -4 6 -10 25 -14 25 -6 z m 30 15 c -49 26 -84 36 -76 22 5 -7 -1 -10 -16 -7 -13 3 -25 5 -28 5 -3 1 1 5 9 10 11 7 4 14 -27 30 -48 25 -54 16 -14 -21 33 -32 79 -52 84 -37 2 7 16 5 38 -4 49 -22 72 -20 30 2 z m -3033 2 c -34 20 -127 59 -127 53 0 -6 121 -63 135 -63 5 0 2 4 -8 10 z m 367 -2 c -14 13 -61 26 -49 13 5 -5 19 -12 30 -15 11 -3 22 -5 25 -6 2 0 0 3 -6 8 z m 1510 39 c 39 14 63 28 55 30 -8 3 -31 13 -51 24 -21 10 -38 14 -38 8 0 -5 8 -11 18 -11 9 -1 -4 -5 -30 -9 -25 -5 -57 -11 -70 -15 -23 -6 -23 -6 -3 10 11 10 32 21 47 27 16 5 26 14 23 18 -3 4 -58 40 -122 78 -131 78 -214 153 -255 229 -34 62 -58 171 -59 266 0 82 -17 142 -39 142 -25 0 -42 -54 -50 -159 -10 -144 -43 -201 -140 -245 l -44 -20 -15 22 c -19 29 -32 37 -56 37 -17 0 -15 -4 13 -26 31 -25 43 -54 21 -54 -6 0 -34 22 -61 49 -33 33 -61 51 -85 56 -19 3 -36 5 -38 3 -2 -2 22 -30 52 -63 31 -33 53 -55 49 -48 -3 6 -2 14 4 18 16 10 49 -14 56 -40 7 -28 21 -33 113 -39 45 -4 67 -10 73 -20 5 -9 18 -16 29 -16 17 0 20 5 15 28 -9 40 6 59 36 44 13 -7 15 -10 6 -8 -24 7 -23 -6 2 -22 14 -9 19 -19 15 -35 -5 -19 0 -25 31 -36 20 -7 56 -31 79 -52 29 -27 51 -39 71 -39 35 0 116 -39 122 -59 4 -10 0 -12 -14 -6 -33 13 -96 26 -102 20 -3 -3 4 -12 16 -21 12 -8 22 -23 22 -33 0 -11 9 -29 19 -42 l 19 -24 84 23 c 154 43 197 40 110 -9 -41 -22 -30 -20 72 19 z m 968 11 c -30 43 -82 78 -62 41 5 -10 20 -26 33 -35 12 -8 21 -19 19 -23 -1 -4 2 -7 7 -7 5 0 13 -3 17 -7 17 -18 12 -5 -14 31 z m -2332 31 c 0 6 -17 10 -38 10 -20 1 -66 7 -102 15 -79 17 -108 19 -94 5 24 -24 234 -51 234 -30 z m 930 34 c 0 2 -8 10 -18 17 -15 13 -16 12 -3 -3 13 -17 21 -22 21 -14 z m -470 26 c 0 6 -5 10 -11 10 -5 0 -7 -4 -4 -10 3 -6 8 -10 11 -10 2 0 4 4 4 10 z m 1070 19 c 0 4 16 16 35 27 34 18 34 19 13 27 -13 5 -53 11 -90 13 -77 4 -149 33 -167 67 -7 13 -21 29 -32 36 -18 11 -21 9 -26 -8 -7 -26 -13 -26 -57 0 -20 12 -36 17 -36 12 0 -15 73 -80 97 -88 13 -3 41 -22 64 -41 63 -53 96 -67 136 -59 25 4 33 3 28 -5 -6 -9 -2 -9 14 -1 11 7 21 15 21 20 z m -2877 -5 c 46 19 66 46 83 113 22 82 94 194 194 295 l 85 88 63 0 c 66 0 138 -27 149 -56 5 -14 44 -34 94 -48 13 -4 4 5 -21 19 -25 15 -56 37 -70 49 -47 43 -155 85 -173 67 -6 -6 -18 -11 -27 -11 -8 0 -37 -18 -64 -40 -26 -22 -52 -40 -57 -40 -16 0 -83 -65 -125 -123 -42 -57 -67 -120 -79 -201 -5 -30 -18 -50 -53 -83 -50 -46 -50 -51 1 -29 z m 1857 -4 c 0 6 -5 10 -11 10 -5 0 -7 -4 -4 -10 3 -6 8 -10 11 -10 2 0 4 4 4 10 z m -2632 88 c 12 42 20 77 18 79 -2 2 -26 -55 -62 -150 -4 -12 -2 -16 8 -12 8 3 25 40 36 83 z m 3897 -79 c 18 7 16 9 -12 15 -35 8 -73 0 -73 -15 0 -11 57 -11 85 0 z m -1620 31 c 3 6 -1 7 -9 4 -18 -7 -21 -14 -7 -14 6 0 13 4 16 10 z m -2113 44 c 41 9 86 13 112 10 41 -6 45 -5 59 23 9 16 27 34 41 41 17 8 35 31 52 69 25 59 68 113 89 113 6 0 24 -14 40 -30 33 -34 44 -36 86 -14 25 12 30 20 25 39 -7 27 59 162 103 209 34 37 116 76 162 76 28 0 46 -9 82 -40 29 -26 48 -36 53 -29 3 6 25 20 48 30 60 27 157 25 221 -4 l 49 -23 63 32 c 34 18 87 41 118 50 l 57 18 -7 71 c -8 89 -29 174 -55 225 -51 100 -160 164 -276 163 -62 -1 -260 -40 -250 -50 7 -8 -26 -63 -37 -63 -5 0 -40 -21 -78 -46 -63 -42 -236 -124 -261 -124 -6 0 -5 7 3 17 21 25 2 13 -134 -90 -112 -85 -228 -200 -284 -282 -54 -80 -111 -217 -170 -410 -5 -16 -3 -18 8 -8 8 6 44 18 81 27 z m 351 -15 c 3 14 1 18 -9 14 -8 -3 -12 -9 -9 -13 3 -5 -9 -5 -27 0 -17 6 -35 15 -38 21 -5 7 -9 5 -13 -5 -5 -11 3 -18 26 -25 50 -14 64 -13 70 8 z m -107 23 c 5 7 3 8 -7 3 -12 -8 -12 -6 0 8 14 18 61 24 61 7 0 -20 46 -9 122 27 70 33 78 39 78 65 0 24 4 28 28 28 37 0 54 17 41 42 -11 21 3 48 25 48 6 0 29 22 49 48 21 27 47 54 58 60 18 11 27 42 12 42 -27 0 -160 -129 -165 -160 -4 -30 -44 -59 -91 -67 -30 -4 -43 -1 -71 21 l -35 26 -16 -31 c -15 -28 -15 -33 0 -55 8 -13 20 -24 26 -24 5 0 21 -7 35 -17 19 -12 22 -18 12 -24 -21 -14 -60 -10 -79 7 -24 22 -56 13 -104 -30 -40 -35 -40 -35 -13 -36 15 0 30 5 34 12 z m 3168 17 c 3 5 0 11 -7 14 -8 3 -14 -1 -14 -9 0 -16 13 -19 21 -5 z m -44 11 c 8 5 10 10 5 10 -5 0 -17 -5 -25 -10 -8 -5 -10 -10 -5 -10 5 0 17 5 25 10 z m -260 5 c 0 2 -16 20 -35 40 -20 19 -31 35 -25 35 22 0 8 29 -27 56 -20 16 -50 42 -66 59 -29 30 -30 30 -22 5 15 -50 56 -109 107 -154 48 -42 68 -54 68 -41 z m 228 16 c -7 5 -19 9 -27 9 -11 0 -11 -3 -1 -14 6 -8 18 -12 27 -9 12 5 12 7 1 14 z m 416 13 c -3 8 -13 17 -22 21 -13 5 -13 2 3 -15 21 -24 26 -25 19 -6 z m -3164 6 c 0 6 -4 10 -10 10 -6 0 -10 -4 -10 -10 0 -6 4 -10 10 -10 6 0 10 4 10 10 z m -30 14 c 0 16 -18 31 -27 22 -8 -8 5 -36 17 -36 5 0 10 6 10 14 z m 1736 21 c -11 8 -27 15 -35 15 -10 -1 -7 -6 9 -15 33 -19 50 -18 26 0 z m 1024 -7 c 0 5 -27 24 -61 43 -33 19 -73 43 -87 55 -34 26 -196 126 -240 149 -19 9 -36 14 -39 11 -3 -2 3 -26 13 -52 12 -32 20 -42 23 -30 6 14 10 14 48 -5 56 -27 96 -66 86 -82 -15 -24 -12 -38 8 -32 12 4 27 -2 41 -15 13 -12 31 -26 41 -32 16 -8 18 -7 13 9 -9 29 7 45 37 37 15 -3 27 -10 27 -16 0 -5 4 -7 9 -4 5 4 11 3 13 -1 4 -10 50 -42 60 -42 5 -1 8 3 8 7 z m -2310 22 c 13 9 13 10 0 10 -8 0 -22 -5 -30 -10 -13 -9 -13 -10 0 -10 8 0 22 5 30 10 z m 2630 4 c 0 2 -7 7 -16 10 -8 3 -12 2 -9 -4 6 -10 25 -14 25 -6 z m -2330 24 c 0 10 -233 62 -277 62 -20 0 -43 -10 -60 -25 l -28 -25 32 17 c 31 17 36 17 120 -1 48 -11 113 -22 143 -26 30 -4 58 -8 62 -9 5 0 8 3 8 7 z m 2260 -4 c 0 3 -4 8 -10 11 -6 3 -10 1 -10 -4 0 -6 4 -11 10 -11 6 0 10 2 10 4 z m -2954 47 c 8 14 -18 31 -30 19 -9 -9 0 -30 14 -30 5 0 12 5 16 11 z m 1174 9 c 0 7 -57 20 -92 20 -35 0 -17 -19 24 -28 44 -9 68 -6 68 8 z m -366 -1 c -30 27 -281 124 -289 111 -5 -9 32 -28 86 -45 13 -4 47 -19 74 -33 27 -14 61 -28 75 -33 35 -10 66 -11 54 0 z m 1209 56 c 40 28 67 71 67 107 0 18 -2 20 -9 9 -5 -8 -30 -20 -56 -26 -39 -11 -57 -9 -131 10 -102 26 -136 24 -130 -11 3 -14 0 -24 -7 -24 -7 0 -12 11 -12 25 0 14 4 25 8 25 5 0 6 4 3 9 -4 5 4 7 16 4 14 -3 3 8 -27 29 -27 18 -52 33 -55 34 -20 3 -74 34 -72 40 2 5 -1 10 -7 12 -18 6 -12 -9 37 -98 l 48 -85 49 -8 c 53 -9 143 -39 185 -62 37 -19 51 -18 93 10 z m 684 1 c -3 3 -12 4 -19 1 -8 -3 -5 -6 6 -6 11 -1 17 2 13 5 z m -2260 94 c 17 0 43 -4 57 -10 15 -5 26 -6 26 0 0 28 -110 30 -174 1 -62 -27 -58 -32 6 -10 29 10 67 18 85 19 z m 557 33 c -25 14 -84 12 -94 -2 -4 -8 -12 -11 -16 -9 -5 3 -18 2 -28 -1 -15 -6 -8 -12 35 -27 l 54 -20 32 25 c 27 21 30 27 17 34 z m -824 -12 c 0 6 -4 7 -10 4 -6 -3 -10 -11 -10 -16 0 -6 4 -7 10 -4 6 3 10 11 10 16 z m 631 10 c -13 5 -35 21 -47 34 -19 21 -20 25 -6 25 9 0 26 -7 37 -16 19 -14 67 -11 90 6 39 29 115 16 138 -24 l 12 -22 48 26 48 27 -81 37 c -135 64 -229 58 -358 -21 l -33 -21 73 -30 c 40 -17 80 -31 88 -31 8 0 4 5 -9 10 z m -611 61 c 0 17 -29 27 -31 10 0 -4 -2 -20 -4 -36 -4 -27 -3 -28 16 -10 10 9 19 25 19 36 z m 21 -34 c 13 15 12 16 -3 3 -10 -7 -18 -15 -18 -17 0 -8 8 -3 21 14 z m 271 39 c -6 2 -18 2 -24 0 -7 -3 -2 -5 12 -5 14 0 19 2 12 5 z m 708 41 c 3 2 -6 1 -18 -3 -21 -6 -23 -4 -18 13 5 15 1 21 -21 25 -16 3 -41 11 -58 17 -23 9 -26 13 -15 20 12 8 10 10 -7 10 -12 0 -53 11 -91 25 -38 14 -71 25 -73 25 -2 0 -4 -13 -5 -29 -1 -28 1 -29 50 -35 33 -5 81 -23 131 -50 78 -43 97 -45 125 -18 z m 160 118 c 63 22 64 23 36 33 -15 6 -37 11 -50 11 -12 0 -69 16 -126 35 -119 40 -129 42 -107 17 8 -9 19 -30 23 -46 9 -38 -14 -32 -36 10 -12 21 -27 31 -56 38 -21 4 -70 21 -108 37 -56 24 -67 26 -62 12 4 -9 10 -36 13 -60 5 -36 8 -41 18 -27 10 15 18 13 83 -17 40 -18 72 -38 72 -45 0 -7 14 -18 30 -26 16 -7 30 -18 30 -25 0 -6 12 -16 28 -21 22 -7 38 -4 87 21 33 17 89 41 125 53 z m 470 4 c -8 5 -22 9 -30 9 -10 0 -8 -3 5 -9 27 -12 43 -12 25 0 z m -335 130 c -3 6 -10 10 -16 10 -5 0 -9 -4 -9 -10 0 -6 7 -10 16 -10 8 0 12 4 9 10 z m -150 21 c -4 5 -14 9 -24 9 -9 0 -26 7 -37 16 -18 15 -18 15 3 5 36 -18 50 -12 23 9 -22 18 -92 38 -112 32 -5 -1 -8 2 -8 7 0 5 -9 11 -20 14 -19 5 -19 4 -2 -19 9 -13 21 -24 26 -24 5 0 35 -13 66 -29 32 -16 61 -27 64 -24 3 4 6 1 6 -6 0 -7 5 -9 10 -6 6 4 8 11 5 16 z m 103 -12 c 10 6 6 11 -17 19 -20 7 -31 7 -31 1 0 -6 -8 -6 -22 1 -22 11 -22 10 -4 -4 10 -9 22 -13 27 -11 4 3 10 1 14 -5 7 -12 16 -12 33 -1 z m -1273 164 c 54 41 64 52 38 38 -12 -6 -25 -16 -28 -21 -4 -6 -11 -8 -16 -5 -5 4 -9 1 -9 -5 0 -6 -6 -8 -12 -4 -7 4 -10 4 -6 -1 4 -4 0 -14 -10 -21 -21 -17 -36 -18 -26 -2 11 17 -127 -60 -166 -93 -29 -25 -16 -20 80 27 63 31 133 70 155 87 z m 965 -78 c -7 9 -15 13 -17 11 -6 -6 20 -36 26 -30 2 2 -2 10 -9 19 z M 6710 -7971 c -41 8 -60 18 -60 32 0 18 45 9 75 -16 17 -13 28 -24 25 -23 -3 0 -21 3 -40 7 z M 6430 -7890 c -12 7 -12 12 -3 21 10 10 18 10 38 1 14 -6 25 -16 25 -22 0 -13 -40 -13 -60 0 z M 7646 -7806 c 21 15 30 14 19 -3 -3 -6 -14 -11 -23 -11 -13 0 -13 2 4 14 z M 7418 -7803 c -10 2 -18 8 -18 13 0 5 6 7 13 4 7 -2 36 7 66 21 53 26 70 27 56 5 -6 -10 -93 -53 -98 -49 -1 1 -10 3 -19 6 z M 6945 -7741 c 39 10 79 32 139 78 52 39 53 23 1 -19 -47 -40 -107 -68 -140 -67 l -30 1 30 7 z M 7775 -7590 c 4 6 11 8 16 5 14 -9 11 -15 -7 -15 -8 0 -12 5 -9 10 z M 7890 -7430 c 0 6 4 10 10 10 6 0 10 -4 10 -10 0 -6 -4 -10 -10 -10 -6 0 -10 4 -10 10 z M 6858 -7413 c 7 3 16 2 19 -1 4 -3 -2 -6 -13 -5 -11 0 -14 3 -6 6 z M 6182 -7387 c 15 14 24 28 21 31 -4 3 1 6 10 6 9 0 19 -4 22 -10 3 -6 0 -10 -8 -10 -8 0 -27 -9 -43 -21 l -29 -21 27 25 z M 7940 -7390 c 0 6 4 10 10 10 6 0 10 -4 10 -10 0 -6 -4 -10 -10 -10 -6 0 -10 4 -10 10 z M 6736 -7372 c 2 6 -1 12 -6 12 -6 0 -10 4 -10 10 0 15 26 12 40 -5 10 -12 10 -15 -3 -15 -8 0 -17 -3 -20 -8 -2 -4 -2 -1 -1 6 z M 7800 -7356 c 0 2 7 9 15 16 9 7 15 8 15 2 0 -5 -7 -12 -15 -16 -8 -3 -15 -4 -15 -2 z M 6284 -7323 c -1 15 8 30 28 44 32 23 49 19 28 -6 -11 -13 -10 -14 6 -9 16 6 16 4 -4 -18 -33 -36 -57 -41 -58 -11 z M 7540 -7310 c -16 31 -10 34 32 15 24 -10 23 -21 -2 -28 -13 -3 -24 1 -30 13 z m 25 -1 c 3 5 1 12 -5 16 -5 3 -10 -1 -10 -9 0 -18 6 -21 15 -7 z M 7585 -7261 c 3 2 0 10 -6 17 -15 18 6 27 31 12 28 -18 25 -38 -5 -36 -13 1 -22 4 -20 7 z M 5941 -7177 c 2 2 22 14 44 27 35 21 38 22 25 5 -21 -28 -32 -35 -54 -35 -11 0 -17 1 -15 3 z M 5457 -7155 c 29 8 71 24 94 35 22 12 43 19 46 17 9 -9 -103 -57 -147 -62 l -45 -5 52 15 z M 7394 -7140 c 3 14 6 40 6 58 0 17 5 32 11 32 15 0 6 -88 -11 -103 -10 -10 -11 -7 -6 13 z M 7705 -7150 c -8 12 2 30 17 30 7 0 7 -4 -1 -13 -6 -8 -8 -17 -4 -20 3 -4 4 -7 0 -7 -3 0 -9 4 -12 10 z M 5864 -7075 c 22 19 48 35 58 35 24 0 23 -17 -2 -25 -11 -3 -26 -12 -33 -19 -7 -7 -24 -16 -37 -20 -21 -6 -19 -2 14 29 z M 6280 -7091 c 0 5 7 12 16 15 14 5 15 4 4 -9 -14 -17 -20 -19 -20 -6 z M 5060 -7060 c 0 5 19 22 41 37 23 16 47 31 53 36 6 4 24 12 41 18 20 7 25 13 17 18 -8 5 2 12 28 20 22 6 40 16 40 21 0 6 5 10 11 10 5 0 7 -5 3 -12 -5 -7 -3 -8 6 -3 24 15 68 15 74 0 4 -10 -1 -15 -15 -15 -22 0 -70 -33 -70 -47 1 -4 -5 -8 -11 -8 -7 0 -16 -4 -19 -8 -10 -13 -199 -77 -199 -67 z M 6448 -7028 c -16 12 -47 23 -79 26 -30 3 -66 14 -85 27 -27 18 -52 23 -151 29 -70 4 -130 3 -144 -3 -43 -16 -148 13 -126 35 4 4 25 1 46 -6 30 -10 47 -10 72 -1 22 8 68 9 138 5 88 -6 114 -12 159 -36 37 -19 69 -28 101 -28 33 0 57 -7 84 -25 37 -26 48 -45 25 -44 -7 0 -25 9 -40 21 z M 6499 -7002 c -22 20 -41 46 -42 58 -1 15 -7 21 -22 20 -11 -1 -19 -7 -18 -13 3 -18 -92 -9 -111 10 -10 9 -32 17 -50 17 -20 0 -40 8 -51 20 -13 14 -22 17 -29 10 -5 -5 -27 -10 -47 -10 -36 0 -37 1 -41 39 -4 45 15 75 57 91 15 6 29 9 30 8 1 -2 7 -12 14 -23 11 -18 11 -18 5 5 -6 24 -6 24 10 5 8 -11 16 -27 16 -35 1 -10 3 -11 7 -2 7 19 48 14 68 -8 10 -11 15 -20 11 -20 -3 0 1 -11 10 -25 12 -19 20 -23 29 -15 7 6 19 8 28 4 9 -3 32 6 53 20 40 27 56 27 34 0 -10 -11 -10 -18 -3 -22 6 -4 13 -18 14 -32 3 -16 15 -30 34 -39 32 -14 74 -69 67 -89 -7 -21 -32 -13 -73 26 z m -355 158 c 10 25 -1 29 -14 5 -6 -12 -7 -21 -1 -21 5 0 12 7 15 16 z m 30 63 c 8 13 -3 19 -24 14 -11 -3 -17 -9 -14 -14 7 -11 31 -12 38 0 z M 3656 -6981 c -3 5 1 11 9 14 9 4 12 1 8 -9 -6 -16 -10 -17 -17 -5 z M 6550 -6960 c 0 6 4 10 10 10 6 0 10 -4 10 -10 0 -6 -4 -10 -10 -10 -6 0 -10 4 -10 10 z M 3815 -6944 c -49 7 -117 13 -151 13 -33 1 -87 6 -120 12 -32 6 -66 12 -74 13 -19 3 -47 13 -87 33 -17 8 -37 12 -44 8 -8 -6 -10 -4 -4 5 6 10 4 12 -8 7 -9 -3 -17 -3 -19 1 -6 14 -108 61 -113 52 -3 -5 3 -13 12 -19 10 -6 13 -10 8 -11 -23 0 -103 29 -135 50 -19 12 -27 19 -17 16 11 -3 31 -8 45 -11 26 -5 26 -5 -3 10 -17 8 -54 25 -83 38 -30 13 -95 58 -145 100 -51 42 -123 96 -161 119 -46 29 -83 61 -110 98 -22 30 -32 49 -23 41 12 -9 17 -10 17 -2 0 6 -7 14 -15 17 -8 4 -15 10 -15 16 0 5 4 6 10 3 14 -9 13 8 -2 23 -8 8 -8 12 -1 12 6 0 18 -10 26 -22 8 -13 34 -43 58 -68 24 -24 44 -51 44 -59 0 -9 42 -38 107 -71 58 -30 137 -72 174 -92 37 -21 84 -43 103 -49 20 -7 46 -19 59 -27 19 -13 22 -13 22 1 0 19 -18 34 -53 42 -15 4 -36 20 -48 36 -17 25 -18 30 -5 35 8 3 21 2 28 -2 10 -6 10 -4 -1 9 -7 9 -26 17 -41 17 -68 0 -336 123 -365 167 -23 35 -12 39 27 10 54 -41 168 -93 263 -122 50 -14 110 -37 135 -50 68 -35 171 -60 181 -43 7 10 12 9 26 -5 14 -14 15 -20 5 -26 -7 -4 18 -14 64 -25 46 -11 72 -21 64 -26 -14 -8 -6 -10 116 -31 56 -9 86 -9 137 1 45 8 71 9 84 2 11 -6 43 -14 71 -18 35 -4 52 -12 55 -23 4 -15 5 -15 6 0 1 19 59 32 78 17 6 -5 62 -12 124 -15 125 -7 123 -21 -6 -32 -58 -5 -70 -9 -73 -25 -3 -14 0 -17 13 -12 32 12 240 18 293 8 49 -9 52 -8 37 8 -8 9 -15 19 -15 22 0 3 37 7 82 10 64 3 95 10 136 31 28 14 52 22 52 17 0 -6 -4 -10 -10 -10 -6 0 -10 -4 -10 -10 0 -6 16 -10 36 -10 31 0 35 3 32 22 -2 17 2 23 16 21 10 0 39 10 65 23 51 28 71 15 30 -18 l -24 -19 25 12 c 25 12 146 16 157 5 3 -3 -14 -15 -38 -26 -34 -16 -38 -19 -14 -14 16 3 57 25 90 48 33 24 94 62 135 86 75 44 85 68 13 32 -21 -11 -53 -23 -71 -27 -17 -3 -59 -25 -92 -46 -45 -31 -67 -40 -92 -37 -31 3 -27 6 63 55 52 29 120 58 150 64 30 6 64 17 76 25 26 16 53 18 53 4 0 -14 53 -4 98 19 29 15 42 17 45 8 3 -9 8 -9 21 2 9 8 19 12 21 9 8 -8 -173 -138 -192 -137 -13 1 -11 3 7 9 14 4 19 8 11 9 -8 1 -11 8 -8 21 5 19 4 19 -37 -2 -22 -11 -62 -36 -88 -56 -45 -34 -47 -37 -31 -54 14 -16 14 -18 -1 -24 -21 -8 -35 4 -17 15 8 5 9 11 3 15 -5 3 -36 -11 -68 -33 -46 -29 -76 -41 -134 -50 -48 -8 -95 -23 -129 -43 -135 -76 -268 -108 -449 -108 -75 -1 -151 -7 -187 -15 -71 -17 -156 -17 -280 1 z m 289 40 c 62 21 53 28 -22 14 -33 -6 -76 -11 -96 -12 -20 -1 -39 -5 -42 -10 -9 -14 111 -9 160 8 z m -217 0 c -3 3 -12 4 -19 1 -8 -3 -5 -6 6 -6 11 -1 17 2 13 5 z m 500 30 c -3 3 -12 4 -19 1 -8 -3 -5 -6 6 -6 11 -1 17 2 13 5 z m 189 24 c 15 6 33 18 40 28 8 9 14 12 14 5 0 -8 7 -8 30 0 16 6 30 15 30 19 0 10 -47 2 -97 -15 -22 -9 -44 -13 -47 -10 -3 4 -6 1 -6 -5 0 -5 -12 -15 -28 -20 l -27 -10 32 -1 c 17 -1 44 4 59 9 z m -1201 40 c 3 6 2 10 -4 10 -5 0 -13 -4 -16 -10 -3 -6 -2 -10 4 -10 5 0 13 4 16 10 z m 1160 12 c 7 7 3 8 -11 4 -12 -4 -42 -11 -65 -16 -43 -9 -42 -9 11 -4 30 3 60 10 65 16 z m -1215 -3 c -8 5 -28 11 -45 14 l -30 6 30 -14 c 34 -16 72 -21 45 -6 z m 80 30 c 0 5 -7 12 -16 15 -24 9 -28 7 -14 -9 14 -17 30 -20 30 -6 z m 430 27 c -25 15 -25 15 -1 8 16 -4 21 -3 17 5 -9 15 -65 14 -107 -1 l -34 -13 45 -6 c 25 -3 58 -7 75 -7 l 30 -1 -25 15 z m -620 36 c -24 20 -24 20 -3 14 18 -6 22 -4 17 7 -5 14 -44 13 -44 -1 0 -11 33 -42 44 -42 6 1 0 10 -14 22 z m 2155 188 c 3 6 1 10 -4 10 -6 0 -11 -4 -11 -10 0 -6 2 -10 4 -10 3 0 8 4 11 10 z M 5556 -6909 c 3 6 0 15 -7 20 -11 7 -10 9 3 9 11 0 18 -8 18 -20 0 -11 -5 -20 -11 -20 -5 0 -7 5 -3 11 z M 5714 -6884 c 4 14 2 21 -7 21 -7 0 -24 3 -39 6 -20 5 -27 3 -30 -11 -3 -10 -15 -18 -27 -19 -12 -1 -19 2 -16 8 4 5 1 9 -4 9 -18 0 -13 17 7 23 9 4 42 15 72 27 45 17 56 18 68 7 16 -16 7 -60 -15 -79 -14 -11 -15 -10 -9 8 z m 16 64 c 0 6 -4 10 -10 10 -6 0 -10 -4 -10 -10 0 -6 4 -10 10 -10 6 0 10 4 10 10 z M 5788 -6893 c 6 2 12 12 12 20 0 11 8 14 28 11 26 -4 28 -2 24 24 -3 20 0 28 11 28 8 0 18 6 20 12 4 9 6 9 6 -1 1 -8 9 -23 18 -33 16 -18 16 -19 -5 -25 -12 -3 -22 -12 -22 -20 0 -8 -4 -12 -9 -8 -5 3 -12 1 -16 -5 -4 -7 -12 -7 -25 0 -13 7 -21 7 -25 0 -3 -5 -12 -10 -18 -9 -9 0 -9 2 1 6 z M 5996 -6873 c -5 11 -1 22 10 30 38 28 58 7 30 -29 -17 -23 -32 -23 -40 -1 z M 3200 -6850 c -11 8 -9 9 12 8 16 -1 28 -6 28 -10 0 -11 -22 -10 -40 2 z M 4833 -6825 c 0 17 6 18 25 6 11 -7 10 -10 -3 -15 -22 -8 -22 -8 -22 9 z M 4925 -6830 c 4 7 -3 8 -20 4 -22 -6 -26 -4 -23 11 1 10 9 20 17 23 9 3 12 0 9 -10 -5 -12 0 -14 20 -10 24 5 26 3 13 -11 -15 -19 -26 -23 -16 -7 z M 4775 -6821 c -3 5 4 13 16 16 28 9 36 -1 10 -14 -12 -7 -22 -7 -26 -2 z M 5997 -6813 c -15 14 -6 33 15 33 30 0 52 -15 44 -29 -8 -12 -49 -15 -59 -4 z M 6147 -6723 c -4 3 -7 11 -7 17 0 6 5 5 12 -2 6 -6 9 -14 6 -17 -2 -3 -8 -2 -11 2 z M 5104 -6702 c 3 6 2 12 -4 14 -6 2 -1 9 11 16 12 8 18 9 15 4 -3 -6 -2 -12 4 -14 6 -2 1 -9 -11 -16 -12 -8 -18 -9 -15 -4 z M 4968 -6673 c 13 3 19 9 16 15 -4 7 -2 8 5 4 17 -11 3 -26 -22 -25 -22 2 -22 2 1 6 z M 6000 -6665 c 0 8 4 15 10 15 5 0 7 -7 4 -15 -4 -8 -8 -15 -10 -15 -2 0 -4 7 -4 15 z M 4198 -6619 c -33 18 -19 27 42 25 59 -1 60 -1 39 -18 -24 -20 -55 -23 -81 -7 z M 4540 -6605 c 7 8 19 15 27 15 8 0 27 7 43 15 48 25 34 9 -16 -19 -52 -29 -73 -33 -54 -11 z M 3682 -6558 c -12 6 -22 15 -22 20 0 11 17 10 25 -2 11 -18 117 -12 153 10 37 23 42 24 42 10 0 -6 -19 -20 -42 -30 -47 -21 -120 -25 -156 -8 z M 3780 -6500 c 0 6 11 10 24 10 14 0 28 -4 31 -10 4 -6 -7 -10 -24 -10 -17 0 -31 4 -31 10 z M 3908 -6473 c 7 3 16 2 19 -1 4 -3 -2 -6 -13 -5 -11 0 -14 3 -6 6 z M 4411 -6476 c 18 18 113 75 117 71 8 -7 -29 -45 -60 -61 -24 -13 -68 -20 -57 -10 z M 6060 -6429 c -34 22 -60 43 -57 46 6 5 113 -63 123 -78 9 -15 0 -11 -66 32 z M 4085 -6360 c 27 12 35 12 35 0 0 -6 -12 -10 -28 -9 -24 0 -25 1 -7 9 z M 3617 -6314 c 2 7 -7 21 -21 32 -23 17 -24 21 -11 32 13 11 14 10 9 -3 -4 -12 2 -18 20 -23 14 -3 25 -9 24 -13 -2 -19 3 -31 12 -26 6 3 10 2 10 -3 0 -6 -11 -9 -24 -8 -13 0 -22 6 -19 12 z M 2365 -6256 c -19 13 -18 15 20 21 22 4 48 12 57 17 13 6 18 5 18 -5 0 -34 -64 -56 -95 -33 z M 3059 -6152 c -13 15 -12 16 3 3 17 -13 22 -21 14 -21 -2 0 -10 8 -17 18 z M 2123 -6134 c -34 34 -28 53 6 20 16 -16 30 -23 33 -16 2 7 9 6 22 -3 18 -13 18 -14 -9 -19 -21 -4 -34 0 -52 18 z M 2465 -6120 c -4 6 5 10 19 10 14 0 26 -4 26 -10 0 -6 -9 -10 -19 -10 -11 0 -23 4 -26 10 z M 2244 -6095 c -25 19 -15 19 27 0 25 -10 29 -14 13 -15 -11 0 -29 7 -40 15 z M 2854 -6055 c 27 19 58 47 68 63 10 15 18 21 18 13 0 -21 -94 -111 -116 -111 -13 0 -3 11 30 35 z M 3787 -6077 c 3 11 16 29 28 41 21 21 23 22 34 4 10 -16 8 -18 -13 -18 -13 0 -31 -10 -40 -22 -11 -17 -14 -18 -9 -5 z M 5180 -6039 c 0 5 4 7 10 4 6 -3 10 -8 10 -11 0 -2 -4 -4 -10 -4 -6 0 -10 5 -10 11 z M 5234 -6032 c 4 6 2 20 -3 30 -7 14 -6 19 5 20 7 1 21 3 29 4 8 1 15 5 15 10 0 4 4 8 10 8 6 0 10 -7 10 -16 0 -8 4 -12 10 -9 6 3 10 1 10 -6 0 -8 -10 -9 -30 -5 -28 5 -30 4 -20 -14 6 -12 7 -20 1 -20 -5 0 -17 -3 -27 -7 -12 -4 -15 -3 -10 5 z M 2131 -6018 c 0 10 -5 18 -11 18 -5 0 -7 7 -3 16 9 23 26 1 20 -27 -3 -15 -5 -17 -6 -7 z M 2640 -6016 c 0 2 13 18 29 35 49 53 76 118 76 188 0 41 3 56 9 46 23 -41 -14 -181 -63 -236 -16 -19 -51 -41 -51 -33 z M 5200 -6010 c -9 6 -10 10 -3 10 6 0 15 -4 18 -10 8 -12 4 -12 -15 0 z M 5318 -6013 c 7 3 16 2 19 -1 4 -3 -2 -6 -13 -5 -11 0 -14 3 -6 6 z M 5340 -5982 c 0 6 -9 12 -20 15 -20 5 -29 37 -9 37 5 0 7 4 4 10 -8 12 5 13 24 1 13 -8 13 -12 1 -28 -12 -15 -12 -16 0 -5 18 16 27 15 34 -3 3 -9 -3 -19 -14 -25 -11 -6 -20 -7 -20 -2 z M 2036 -5938 c -19 52 -25 109 -11 114 6 2 16 -25 22 -60 7 -35 15 -71 19 -80 3 -9 2 -16 -4 -16 -6 0 -17 19 -26 42 z M 2259 -5941 c -16 16 -29 35 -29 43 0 7 8 0 18 -15 9 -16 29 -31 44 -34 15 -3 25 -9 22 -14 -9 -16 -25 -10 -55 20 z M 3287 -5957 c -9 25 28 50 65 44 18 -2 42 0 53 6 19 10 19 9 4 -14 -13 -19 -23 -23 -57 -21 -29 3 -43 -1 -50 -13 -8 -15 -10 -15 -15 -2 z M 2321 -5933 c -1 6 -4 20 -7 30 -5 17 -5 17 6 0 6 -10 9 -23 6 -30 -3 -9 -5 -9 -5 0 z M 4189 -5922 c -13 15 -12 16 3 3 17 -13 22 -21 14 -21 -2 0 -10 8 -17 18 z M 3050 -5866 c 0 11 58 71 64 65 3 -3 -10 -21 -29 -39 -19 -19 -35 -31 -35 -26 z M 2561 -5814 c 0 11 3 14 6 6 3 -7 2 -16 -1 -19 -3 -4 -6 2 -5 13 z M 2139 -5796 c -7 14 -9 40 -5 62 l 7 37 21 -20 c 11 -12 18 -28 15 -39 -4 -16 -6 -16 -13 6 l -8 25 -6 -25 c -4 -15 -1 -34 8 -48 10 -15 11 -22 3 -22 -6 0 -16 11 -22 24 z M 4960 -5773 c -25 9 -46 20 -48 25 -2 4 -10 8 -17 8 -33 0 -20 16 13 17 43 1 87 -19 102 -47 13 -23 10 -24 -50 -3 z m 0 27 c 0 2 -7 6 -15 10 -8 3 -15 1 -15 -4 0 -6 7 -10 15 -10 8 0 15 2 15 4 z M 2588 -5755 c 6 11 23 31 39 45 l 28 25 -30 -35 c -47 -55 -48 -56 -37 -35 z M 2002 -5744 c 1 9 9 19 16 22 9 3 13 -2 10 -14 -1 -9 -9 -19 -16 -22 -9 -3 -13 2 -10 14 z M 2680 -5751 c 0 5 9 19 20 32 l 21 24 -16 -33 c -15 -31 -25 -41 -25 -23 z M 2352 -5727 c 0 15 4 27 9 27 16 0 18 -17 5 -35 -13 -17 -14 -17 -14 8 z M 2092 -5706 c -13 28 -5 66 14 66 20 0 27 -18 20 -56 -8 -40 -19 -43 -34 -10 z M 3010 -5682 c 0 8 -5 10 -12 5 -7 -4 -5 6 6 21 27 42 36 82 26 117 -7 22 -6 29 3 26 17 -6 13 -104 -7 -147 -8 -19 -15 -29 -16 -22 z M 3505 -5660 c 3 6 8 10 11 10 2 0 4 -4 4 -10 0 -6 -5 -10 -11 -10 -5 0 -7 4 -4 10 z M 4565 -5570 c -16 7 -17 9 -3 9 9 1 20 -3 23 -9 7 -11 7 -11 -20 0 z M 3220 -5561 c 0 7 6 27 14 45 7 18 17 53 21 77 12 71 24 81 24 19 0 -59 -26 -141 -47 -148 -6 -2 -12 1 -12 7 z M 8475 -6229 c -8 12 14 31 30 26 5 -2 10 -10 10 -18 0 -17 -31 -24 -40 -8 z M 8342 -6197 c -32 22 -41 37 -22 37 6 0 10 -4 10 -10 0 -6 5 -10 11 -10 12 0 43 -29 37 -35 -2 -3 -18 6 -36 18 z M 8353 -6105 c -3 9 -3 19 1 22 7 7 36 -16 36 -28 0 -15 -30 -10 -37 6 z M 8232 -6075 c -17 19 -1 19 24 0 14 -11 15 -14 4 -14 -8 0 -21 6 -28 14 z M 5965 -5939 c -103 69 -143 116 -160 194 -7 29 -6 28 20 -10 15 -22 69 -82 119 -133 50 -50 88 -92 86 -91 -3 0 -32 18 -65 40 z M 6510 -5924 c 0 14 54 84 65 84 7 0 15 6 18 14 3 8 16 20 28 26 15 8 19 9 15 1 -4 -6 -2 -11 3 -11 6 0 11 7 11 15 0 8 7 15 15 15 8 0 15 -4 15 -8 0 -13 -59 -44 -70 -37 -6 4 -9 3 -8 -2 4 -11 -60 -90 -78 -97 -8 -3 -14 -3 -14 0 z M 7582 -4910 c -18 11 -38 32 -44 46 -11 23 -10 28 7 41 40 29 137 1 169 -49 8 -13 6 -22 -8 -37 -25 -27 -80 -27 -124 -1 z m 106 2 c 43 43 -60 109 -115 73 -31 -21 -29 -30 14 -60 40 -27 82 -32 101 -13 z M 7052 -4715 c -123 42 -192 98 -192 156 0 23 8 33 42 51 38 21 57 23 173 23 126 0 132 -1 195 -32 99 -49 121 -101 66 -162 -57 -64 -163 -77 -284 -36 z m 241 34 c 94 58 37 149 -114 181 -57 12 -84 11 -183 -10 -130 -27 -127 -95 6 -155 122 -56 218 -61 291 -16 z M 7065 -4669 c -17 10 -26 19 -22 19 11 0 67 -29 67 -35 0 -9 -15 -4 -45 16 z M 7205 -4670 c 3 6 11 10 16 10 6 0 7 -4 4 -10 -3 -6 -11 -10 -16 -10 -6 0 -7 4 -4 10 z M 7140 -4603 c -19 8 -30 17 -23 20 11 4 73 -23 73 -32 0 -8 -13 -5 -50 12 z M 6965 -4600 c -8 13 15 24 27 12 6 -6 4 -11 -6 -15 -8 -3 -18 -2 -21 3 z M 6615 -4280 c -121 45 -112 44 -430 24 -168 -10 -313 30 -350 98 -17 32 -17 38 -5 54 8 9 35 26 60 38 41 18 62 20 220 18 137 -3 210 2 330 18 133 19 167 20 240 11 188 -24 301 -128 238 -220 -62 -92 -136 -101 -303 -41 z m 235 5 c 34 18 45 35 54 88 5 28 3 45 -9 64 -22 33 -103 69 -189 84 -71 12 -104 9 -351 -27 -67 -9 -123 -12 -170 -7 -157 17 -335 -11 -335 -54 0 -25 52 -63 109 -80 63 -20 254 -24 406 -9 83 7 99 6 205 -22 63 -17 126 -35 140 -41 37 -15 107 -13 140 4 z M 6770 -4266 c 0 7 40 14 44 7 3 -4 -6 -8 -20 -9 -13 -1 -24 0 -24 2 z M 6790 -4196 c 0 11 -5 16 -13 13 -7 -3 -21 1 -32 9 -10 8 -29 14 -41 14 -12 0 -27 6 -33 14 -10 11 -22 11 -78 -1 -44 -9 -91 -11 -139 -7 -40 4 -81 3 -91 -1 -22 -9 -274 -16 -325 -9 -72 11 -37 22 84 27 68 3 136 8 153 12 17 3 53 7 80 9 28 1 56 5 62 9 6 4 14 0 17 -9 4 -12 13 -14 29 -9 12 3 67 7 122 7 81 1 108 -2 145 -19 68 -31 88 -49 72 -64 -10 -11 -12 -9 -12 5 z M 4930 -3839 c -151 22 -244 117 -198 202 17 33 36 44 113 68 138 43 290 21 390 -56 37 -27 52 -73 36 -104 -41 -76 -208 -130 -341 -110 z m 215 58 c 126 56 126 126 -1 186 -74 35 -143 41 -224 20 -106 -28 -170 -73 -170 -120 0 -31 51 -75 112 -97 73 -26 212 -20 283 11 z M 4932 -3743 c -23 9 -12 20 29 27 50 8 70 -2 38 -20 -25 -14 -45 -16 -67 -7 z M 5094 -3725 c -18 14 -18 15 0 9 11 -4 21 -1 27 7 6 10 11 11 20 2 19 -19 -24 -36 -47 -18 z M 4786 -3721 c -4 5 -2 12 3 15 5 4 12 2 15 -3 4 -5 2 -12 -3 -15 -5 -4 -12 -2 -15 3 z M 4839 -3690 c 25 22 39 24 59 11 10 -6 5 -11 -19 -20 -51 -18 -68 -14 -40 9 z M 6050 -4990 c -9 6 -10 10 -3 10 6 0 15 -4 18 -10 8 -12 4 -12 -15 0 z M 5020 -5155 c -7 9 -11 18 -8 20 3 3 11 -1 18 -10 7 -9 11 -18 8 -20 -3 -3 -11 1 -18 10 z M 6951 -5222 c -7 13 -11 28 -8 35 2 7 9 2 16 -11 7 -13 11 -28 8 -35 -2 -7 -9 -2 -16 11 z M 6500 -5168 c 0 10 -10 20 -24 24 -26 6 -83 60 -74 69 3 3 23 -5 43 -20 21 -14 43 -25 50 -25 16 0 25 32 25 88 0 50 16 48 25 -2 7 -37 -7 -102 -29 -131 -14 -18 -15 -18 -16 -3 z M 6568 -5085 c 2 14 8 25 12 25 10 0 1 -38 -10 -45 -4 -2 -5 7 -2 20 z M 2770 -5076 c 0 11 52 106 61 112 13 8 11 -2 -12 -51 -19 -39 -49 -77 -49 -61 z M 2881 -4854 c 17 21 67 46 84 42 7 -2 -11 -15 -42 -30 -33 -16 -50 -21 -42 -12 z M 4380 -4700 c 0 6 5 10 11 10 5 0 7 -4 4 -10 -3 -6 -8 -10 -11 -10 -2 0 -4 4 -4 10 z M 6256 -4835 c -11 8 -15 15 -9 15 6 0 16 -7 23 -15 16 -19 11 -19 -14 0 z M 3746 -4472 c -2 4 -1 14 3 21 6 9 10 7 14 -8 5 -20 -7 -29 -17 -13 z M 4140 -4275 c -19 8 -48 17 -65 21 -17 3 -24 9 -17 11 16 6 122 -27 122 -38 0 -5 -1 -9 -2 -8 -2 1 -19 7 -38 14 z M 5260 -4804 c 0 17 23 34 44 33 15 0 17 -2 6 -6 -8 -3 -23 -12 -32 -21 -10 -8 -18 -11 -18 -6 z M 5070 -4565 c -13 14 -29 24 -35 23 -14 -4 -85 34 -85 44 0 12 63 -4 92 -23 14 -11 32 -19 40 -19 20 0 37 -20 31 -36 -7 -20 -16 -17 -43 11 z M 4727 -4493 c -4 3 -7 11 -7 17 0 6 5 5 12 -2 6 -6 9 -14 6 -17 -2 -3 -8 -2 -11 2 z M 4767 -4493 c -13 12 -7 35 7 30 8 -3 17 -1 19 6 3 7 8 5 12 -7 10 -23 -21 -47 -38 -29 z M 4905 -4219 c 4 116 10 149 26 149 5 0 9 -52 9 -118 0 -111 -7 -142 -31 -142 -5 0 -6 50 -4 111 z M 2090 -4551 c 0 11 4 22 9 25 4 3 6 -6 3 -19 -5 -30 -12 -33 -12 -6 z M 2188 -4522 c -6 24 18 103 34 113 20 13 34 11 20 -3 -7 -7 -12 -29 -12 -51 0 -59 -32 -105 -42 -59 z M 2288 -4304 c -11 10 76 134 93 134 15 0 10 -14 -17 -45 -14 -17 -32 -45 -39 -63 -13 -31 -25 -39 -37 -26 z M 2485 -4159 c -4 6 -4 13 0 17 3 3 10 0 15 -8 7 -11 15 -8 44 14 25 19 36 23 36 13 0 -32 -80 -62 -95 -36 z M 2310 -4125 c 7 8 19 15 27 15 13 0 13 -3 3 -15 -7 -8 -19 -15 -27 -15 -13 0 -13 3 -3 15 z M 3055 -4071 c -3 6 5 15 19 20 17 7 26 19 28 38 3 27 4 27 15 7 9 -16 9 -26 0 -45 -13 -25 -51 -37 -62 -20 z M 2577 -4033 c -14 13 -6 23 29 38 50 21 52 19 19 -15 -30 -31 -37 -35 -48 -23 z M 3391 -4002 c 0 4 4 16 9 27 8 18 9 17 9 -7 1 -16 -3 -28 -9 -28 -6 0 -10 3 -9 8 z M 3480 -3975 c 0 14 -7 42 -15 61 -17 40 -11 62 11 43 18 -15 35 -77 28 -106 -8 -31 -24 -29 -24 2 z M 2630 -3952 c 0 12 19 26 26 19 2 -2 -2 -10 -11 -17 -9 -8 -15 -8 -15 -2 z M 2901 -3943 c 7 12 15 20 18 17 3 -2 -3 -12 -13 -22 -17 -16 -18 -16 -5 5 z M 2861 -3871 c -10 7 -5 11 17 16 38 8 66 -4 36 -16 -26 -10 -37 -10 -53 0 z M 3096 -3871 c -4 5 -2 12 4 16 5 3 10 0 10 -7 0 -10 3 -9 11 2 9 12 10 12 7 1 -5 -18 -24 -25 -32 -12 z M 3489 -3787 c -20 34 -41 61 -48 59 -7 -1 -10 2 -7 7 7 11 -18 33 -27 24 -4 -3 -7 -1 -7 5 0 5 -3 18 -7 27 -6 16 -4 16 20 0 31 -20 96 -105 102 -132 2 -10 6 -26 10 -35 14 -35 -1 -17 -36 45 z M 3257 -3810 c -3 11 -3 20 -1 20 2 0 8 -9 14 -20 6 -11 7 -20 2 -20 -6 0 -12 9 -15 20 z M 3337 -3790 c -25 36 -23 60 4 33 12 -11 19 -29 17 -39 -3 -17 -5 -17 -21 6 z M 3351 -3735 c -20 34 -18 43 5 27 11 -7 34 -45 34 -56 0 -17 -21 -2 -39 29 z M 3044 -3736 c 22 18 62 21 71 6 4 -6 -6 -10 -24 -10 -16 0 -38 -3 -48 -6 -16 -5 -16 -4 1 10 z M 3235 -3733 c -36 9 -41 23 -7 23 22 0 32 -5 32 -15 0 -8 -1 -14 -2 -14 -2 1 -12 3 -23 6 z M 3060 -3677 c 0 8 7 18 16 21 11 4 14 1 12 -11 -4 -21 -28 -30 -28 -10 z M 2564 -4499 c -10 12 -32 30 -49 40 -23 14 -25 19 -11 19 30 0 96 -42 96 -62 0 -24 -13 -23 -36 3 z M 4530 -4279 c 0 5 11 9 25 9 14 0 25 -2 25 -4 0 -2 -11 -6 -25 -8 -14 -3 -25 -1 -25 3 z M 4545 -4250 c -3 6 3 10 15 10 12 0 18 -4 15 -10 -3 -6 -10 -10 -15 -10 -5 0 -12 4 -15 10 z M 4417 -4187 c -4 12 10 14 43 8 6 -2 -23 -21 -31 -21 -4 0 -9 6 -12 13 z M 3915 -4030 c -4 6 -11 7 -17 4 -7 -4 -8 -2 -4 5 4 6 11 9 16 6 5 -3 15 1 23 9 18 18 27 12 20 -15 -6 -20 -28 -26 -38 -9 z M 3947 -3961 c -4 17 -3 21 5 13 5 -5 8 -16 6 -23 -3 -8 -7 -3 -11 10 z M 2827 -3729 c 7 7 15 10 18 7 3 -3 -2 -9 -12 -12 -14 -6 -15 -5 -6 5 z M 8414 -3882 c -15 26 -34 58 -42 72 -14 22 -14 23 0 10 17 -17 82 -130 75 -130 -3 0 -18 21 -33 48 z M 8239 -3618 c -60 85 -67 97 -46 79 21 -17 100 -131 95 -137 -3 -2 -24 24 -49 58 z M 2120 -3497 c 0 4 87 119 127 166 1 2 5 2 8 0 2 -3 -25 -41 -62 -85 -80 -96 -73 -89 -73 -81 z M 8053 -3377 c -35 39 -37 53 -2 20 18 -18 31 -35 28 -38 -3 -3 -15 5 -26 18 z M 2385 -3185 c 37 41 72 75 78 75 7 0 -22 -34 -63 -75 -41 -41 -76 -75 -78 -75 -2 0 26 34 63 75 z M 7835 -3145 c -22 19 -34 34 -27 35 13 0 76 -59 70 -66 -2 -1 -21 13 -43 31 z M 2590 -2991 c 47 44 90 80 95 80 11 0 -52 -59 -130 -121 -27 -22 -12 -4 35 41 z M 7610 -2935 c -13 14 -19 25 -13 25 12 0 48 -38 41 -45 -2 -3 -15 6 -28 20 z M 2710 -2885 c 0 11 45 45 59 45 11 -1 6 -9 -14 -25 -28 -23 -45 -31 -45 -20 z M 7462 -2820 c -40 33 -20 39 28 9 39 -25 42 -29 20 -28 -14 0 -36 8 -48 19 z M 2906 -2736 c 8 21 117 96 140 96 15 0 -36 -40 -123 -97 -21 -14 -23 -14 -17 1 z M 3102 -2593 c 2 9 29 28 63 42 34 14 78 36 99 49 21 13 36 17 34 10 -4 -12 -174 -117 -191 -118 -5 0 -7 7 -5 17 z M 6953 -2492 c -45 26 -85 51 -90 56 -17 18 70 -6 90 -25 12 -11 27 -17 34 -15 7 3 13 1 13 -3 0 -5 9 -7 20 -4 17 5 20 0 20 -26 0 -17 -1 -31 -2 -30 -2 0 -40 21 -85 47 z M 3406 -2425 c -3 9 1 15 10 15 8 0 29 7 45 16 31 15 51 12 33 -6 -5 -5 -25 -16 -46 -24 -32 -14 -37 -14 -42 -1 z M 6730 -2378 c -99 47 -97 45 -82 60 9 9 18 7 39 -10 16 -13 56 -36 91 -53 34 -17 62 -33 62 -35 0 -10 -31 1 -110 38 z M 3700 -2301 c 0 5 20 16 44 25 25 9 50 24 56 32 7 8 30 14 51 14 21 0 42 6 46 13 8 13 192 61 201 53 6 -7 -36 -23 -128 -48 -41 -11 -82 -24 -91 -29 -38 -20 -179 -67 -179 -60 z M 6397 -2243 c -26 9 -46 18 -43 20 9 10 105 -11 110 -23 7 -18 -7 -17 -67 3 z M 4294 -2104 c 3 9 6 19 6 22 0 4 26 8 58 9 174 8 217 13 300 38 16 5 22 3 22 -8 0 -11 -17 -17 -68 -22 -37 -4 -119 -18 -182 -31 -137 -28 -144 -29 -136 -8 z M 5572 -2043 c 10 2 26 2 36 0 9 -3 1 -5 -18 -5 -19 0 -27 2 -18 5 z M 5358 -2033 c -43 2 -78 8 -78 13 0 11 120 13 169 4 35 -7 43 -25 9 -22 -13 1 -58 4 -100 5 z M 4890 -2021 c 8 5 63 11 121 13 90 3 102 2 81 -9 -28 -15 -227 -18 -202 -4 z M 4770 -2004 c 34 7 110 9 110 2 0 -5 -28 -7 -62 -7 -35 1 -56 3 -48 5 z M 5165 -2005 c 26 9 105 12 105 4 0 -5 -26 -9 -58 -8 -31 0 -52 2 -47 4 z M 5528 -2003 c 6 2 18 2 24 0 7 -3 2 -5 -12 -5 -14 0 -19 2 -12 5 z " />
  </g>
</svg>